<svg width="80" height="80" viewBox="0 0 80 80" fill="none" xmlns="http://www.w3.org/2000/svg">
<circle cx="40" cy="40" r="40" fill="#D3D3D3"/>
<path d="M40 20C34.9225 20 30.8065 24.0753 30.8065 29.1025C30.8065 34.1296 34.9225 38.2049 40 38.2049C45.0775 38.2049 49.1935 34.1296 49.1935 29.1025C49.1935 24.0753 45.0775 20 40 20Z" fill="#969696"/>
<path d="M30.1935 43.0596C25.1161 43.0596 21 47.1349 21 52.162V55.0464C21 56.8747 22.3383 58.4336 24.1608 58.7282C34.6508 60.4239 45.3492 60.4239 55.8392 58.7282C57.6617 58.4336 59 56.8747 59 55.0464V52.162C59 47.1349 54.8839 43.0596 49.8064 43.0596H48.9708C48.5185 43.0596 48.069 43.1304 47.639 43.2694L45.5171 43.9554C41.9322 45.1144 38.0678 45.1144 34.4829 43.9554L32.361 43.2694C31.931 43.1304 31.4815 43.0596 31.0292 43.0596H30.1935Z" fill="#969696"/>
</svg>
