<svg width="341" height="341" viewBox="0 0 341 341" fill="none" xmlns="http://www.w3.org/2000/svg">
<path d="M323.377 164.56C323.377 165.242 323.377 165.876 323.377 166.524C323.377 166.804 323.377 167.09 323.377 167.37C323.377 167.827 323.377 168.29 323.343 168.734C323.343 169.006 323.343 169.286 323.309 169.559C323.309 170.241 323.254 170.923 323.207 171.605C323.159 172.287 323.118 173.044 323.063 173.753C323.029 174.183 322.995 174.612 322.947 175.042C322.9 175.472 322.879 175.915 322.831 176.345C322.763 177.027 322.688 177.756 322.6 178.452C322.552 178.936 322.49 179.434 322.422 179.925C322.422 180.184 322.361 180.437 322.32 180.696C322.31 180.831 322.289 180.966 322.259 181.098C319.643 199.461 312.902 216.993 302.542 232.378C215.369 303.306 129.314 307.78 44.4185 240.46C27.5663 218.861 17.7114 192.72 17.7114 164.553C17.7114 138.275 39.249 65.663 158.047 22.3355C198.967 7.43382 280.663 72.7626 311.374 127.439C318.903 140.922 323.377 153.743 323.377 164.56Z" fill="#20B08E"/>
<g opacity="0.7">
<path d="M323.377 164.56C323.377 165.242 323.377 165.876 323.377 166.524C323.377 166.804 323.377 167.09 323.377 167.37C323.377 167.827 323.377 168.29 323.343 168.734C323.343 169.006 323.343 169.286 323.309 169.559C323.309 170.241 323.254 170.923 323.207 171.605C323.159 172.287 323.118 173.044 323.063 173.753C323.029 174.183 322.995 174.612 322.947 175.042C322.9 175.472 322.879 175.915 322.831 176.345C322.763 177.027 322.688 177.756 322.6 178.452C322.552 178.936 322.49 179.434 322.422 179.925C322.422 180.184 322.361 180.437 322.32 180.696C322.31 180.831 322.289 180.966 322.259 181.098C319.643 199.461 312.902 216.993 302.542 232.378C215.369 303.306 129.314 307.78 44.4185 240.46C27.5663 218.861 17.7114 192.72 17.7114 164.553C17.7114 138.275 39.249 65.663 158.047 22.3355C198.967 7.43382 280.663 72.7626 311.374 127.439C318.903 140.922 323.377 153.743 323.377 164.56Z" fill="white"/>
</g>
<path d="M221.882 121.396L264.746 122.91C271.566 123.156 271.92 114.46 264.384 112.237L264.098 112.155C271.075 105.56 248.855 90.972 238.864 111.336C237.623 105.717 225.578 108.179 225.769 115.012C222.018 110.682 216.324 117.768 221.882 121.396Z" stroke="#515B60" stroke-linecap="round" stroke-linejoin="round"/>
<path d="M71.0917 96.3802L107.292 95.7733C113.062 95.6778 112.482 87.903 105.928 86.273L105.676 86.2116C110.88 80.0122 90.7333 68.0227 84.3566 86.6345C82.7539 81.6763 72.8649 84.4248 73.7174 90.515C70.1369 86.8459 66.0586 93.434 71.0917 96.3802Z" stroke="#515B60" stroke-linecap="round" stroke-linejoin="round"/>
<path d="M214.25 68.5137C213.813 68.409 213.384 68.2699 212.968 68.0977C212.197 67.7976 211.202 67.2861 210.172 66.7883C209.316 66.3613 208.393 66.0845 207.444 65.9699C206.714 65.888 206.216 65.9699 206.148 65.7789C206.08 65.5879 206.51 65.2333 207.396 65.0969C208.54 64.939 209.704 65.1367 210.731 65.663C211.693 66.1606 212.568 66.81 213.323 67.5862C213.896 68.1318 214.25 68.5137 214.25 68.5137Z" fill="#515B60"/>
<path d="M218.751 64.8923L217.824 65.2537C217.272 65.4788 216.576 65.7925 215.778 66.1335C214.23 66.8155 212.907 67.4975 212.688 67.2179C212.586 67.0747 212.791 66.7269 213.241 66.2972C213.837 65.725 214.53 65.2632 215.287 64.9332C216.06 64.6035 216.908 64.4857 217.742 64.5922C217.995 64.6258 218.244 64.6829 218.485 64.7627L218.751 64.8923Z" fill="#515B60"/>
<path d="M205.896 71.2144L205.643 71.0576C205.487 70.9553 205.248 70.8257 204.961 70.6688C204.233 70.2765 203.474 69.9457 202.69 69.6799C200.89 68.9979 199.28 69.1753 199.226 68.9025C199.226 68.7797 199.594 68.5751 200.29 68.4728C201.211 68.3657 202.144 68.4706 203.018 68.7797C203.888 69.0826 204.665 69.604 205.275 70.2937C205.459 70.506 205.623 70.7342 205.766 70.9757C205.848 71.119 205.896 71.2144 205.896 71.2144Z" fill="#515B60"/>
<path d="M207.669 67.518C207.669 67.518 207.41 67.6749 207.021 67.8931L205.582 68.6979C204.491 69.298 203.652 69.9937 203.448 69.8095C203.352 69.7209 203.448 69.4276 203.727 69.0525C204.094 68.564 204.558 68.1575 205.091 67.859C205.64 67.5657 206.255 67.4178 206.878 67.4293C207.144 67.426 207.41 67.4558 207.669 67.518Z" fill="#515B60"/>
<path d="M204.402 65.3629C204.402 65.3629 203.795 65.1514 202.861 64.7559C201.927 64.3603 200.665 63.8011 199.294 63.351C198.128 62.9608 196.901 62.7897 195.673 62.8463C194.731 62.9008 194.131 63.085 194.043 62.9145C193.954 62.744 194.459 62.2734 195.516 61.9597C196.894 61.6059 198.346 61.6676 199.69 62.137C200.979 62.5874 202.169 63.2821 203.195 64.183C203.619 64.5534 204.022 64.9473 204.402 65.3629Z" fill="#515B60"/>
<path d="M208.549 60.0978L208.201 60.2001C207.976 60.2547 207.662 60.3502 207.287 60.4661C206.342 60.7775 205.415 61.1418 204.511 61.5573C202.418 62.4985 201.067 63.8898 200.774 63.6647C200.644 63.5624 200.815 63.0509 201.354 62.3894C202.068 61.5382 202.966 60.8598 203.979 60.4047C204.994 59.9435 206.108 59.7464 207.219 59.8319C207.55 59.8604 207.878 59.9151 208.201 59.9955L208.549 60.0978Z" fill="#515B60"/>
<path d="M21.333 189.93L48.2857 151.104L64.1285 146.33L67.6544 134.136C68.4808 131.282 69.889 128.63 71.7905 126.347C73.692 124.064 76.0455 122.2 78.7029 120.871L85.2501 100.936L105.314 96.162L128.441 49.2404L143.752 48.7153L158.006 41.8543L170.677 36.5688L184.406 52.4117L197.098 82.522L215.683 95.6505L234.669 133.672C251.02 139.672 264.939 150.892 274.273 165.596L291.896 193.354L115.872 202.847L21.333 189.93Z" fill="white"/>
<mask id="mask0_61_1319" style="mask-type:luminance" maskUnits="userSpaceOnUse" x="21" y="36" width="271" height="167">
<path d="M21.333 189.93L48.2857 151.104L64.1285 146.33L67.6544 134.136C68.4808 131.282 69.889 128.63 71.7905 126.347C73.692 124.064 76.0455 122.2 78.7029 120.871L85.2501 100.936L105.314 96.162L128.441 49.2404L143.752 48.7153L158.006 41.8543L170.677 36.5688L184.406 52.4117L197.098 82.522L215.683 95.6505L234.669 133.672C251.02 139.672 264.939 150.892 274.273 165.596L291.896 193.354L115.872 202.847L21.333 189.93Z" fill="white"/>
</mask>
<g mask="url(#mask0_61_1319)">
<path d="M120.632 87.6779C119.889 89.8535 119.098 92.0564 117.686 93.8637C116.138 95.8249 113.947 97.1773 111.5 97.6829C114.496 98.8326 117.729 99.2216 120.912 98.815C120.592 95.5685 121.076 92.2932 122.321 89.278C123.566 86.2629 125.535 83.6006 128.052 81.5263C127.334 74.7699 128.702 67.9556 131.974 62.0006C132.82 60.4593 133.822 58.918 134.02 57.1721C134.122 56.1627 133.836 54.635 132.97 53.9735C131.074 52.5208 131.551 53.9735 130.685 55.3375C128.966 58.0655 128.571 62.8395 127.643 65.9494C125.452 73.2332 123.115 80.476 120.632 87.6779Z" fill="#20B08E"/>
<path opacity="0.8" d="M120.632 87.6779C119.889 89.8535 119.098 92.0564 117.686 93.8637C116.138 95.8249 113.947 97.1773 111.5 97.6829C114.496 98.8326 117.729 99.2216 120.912 98.815C120.592 95.5685 121.076 92.2932 122.321 89.278C123.566 86.2629 125.535 83.6006 128.052 81.5263C127.334 74.7699 128.702 67.9556 131.974 62.0006C132.82 60.4593 133.822 58.918 134.02 57.1721C134.122 56.1627 133.836 54.635 132.97 53.9735C131.074 52.5208 131.551 53.9735 130.685 55.3375C128.966 58.0655 128.571 62.8395 127.643 65.9494C125.452 73.2332 123.115 80.476 120.632 87.6779Z" fill="white"/>
<path d="M81.5535 143.527C81.6958 143.15 81.727 142.74 81.6436 142.346C81.5602 141.952 81.3657 141.59 81.083 141.304C82.0692 141.501 83.091 141.419 84.0332 141.068C84.9755 140.716 85.8008 140.108 86.4162 139.312C85.7625 136.952 85.6599 134.473 86.1163 132.066C86.5728 129.66 87.576 127.391 89.0487 125.433C88.4486 127.248 87.8348 129.116 87.9371 131.026C88.0394 132.935 89.0078 134.927 90.7674 135.677C95.2276 137.573 100.459 130.664 104.476 133.386L99.7016 137.518L112.612 135.111L114.371 131.121C115.006 132.601 115.633 134.088 116.267 135.575C116.736 133.227 117.711 131.011 119.124 129.079C120.538 127.147 122.356 125.547 124.451 124.39C120.557 128.236 121.539 135.813 116.786 138.521C114.774 139.66 112.325 139.524 110.02 139.674C103.043 140.137 96.6598 143.534 90.1058 145.975C84.1315 148.192 75.7838 150.231 69.9868 146.562C71.61 145.9 81.0693 144.789 81.5535 143.527Z" fill="#20B08E"/>
<path opacity="0.8" d="M81.5535 143.527C81.6958 143.15 81.727 142.74 81.6436 142.346C81.5602 141.952 81.3657 141.59 81.083 141.304C82.0692 141.501 83.091 141.419 84.0332 141.068C84.9755 140.716 85.8008 140.108 86.4162 139.312C85.7625 136.952 85.6599 134.473 86.1163 132.066C86.5728 129.66 87.576 127.391 89.0487 125.433C88.4486 127.248 87.8348 129.116 87.9371 131.026C88.0394 132.935 89.0078 134.927 90.7674 135.677C95.2276 137.573 100.459 130.664 104.476 133.386L99.7016 137.518L112.612 135.111L114.371 131.121C115.006 132.601 115.633 134.088 116.267 135.575C116.736 133.227 117.711 131.011 119.124 129.079C120.538 127.147 122.356 125.547 124.451 124.39C120.557 128.236 121.539 135.813 116.786 138.521C114.774 139.66 112.325 139.524 110.02 139.674C103.043 140.137 96.6598 143.534 90.1058 145.975C84.1315 148.192 75.7838 150.231 69.9868 146.562C71.61 145.9 81.0693 144.789 81.5535 143.527Z" fill="white"/>
<path d="M55.3103 192.003C59.9683 185.061 67.7909 179.093 69.2708 170.861L71.6032 157.903C71.6032 157.903 66.0586 175.015 63.467 177.32C60.8754 179.625 53.0938 189.964 53.0938 189.964L55.3103 192.003Z" fill="#20B08E"/>
<path d="M189.548 121.635L189.467 121.028C189.357 120.823 189.255 120.619 189.146 120.421C189.282 120.823 189.419 121.226 189.548 121.635Z" fill="#E4F8E9"/>
<path d="M98.4673 176.563L97.5261 173.03C96.0939 176.749 94.6595 180.464 93.2227 184.174C92.4111 186.281 91.5859 188.45 91.5723 190.708C91.642 191.889 92.0126 193.033 92.6488 194.031C93.285 195.029 94.1657 195.847 95.2073 196.409C94.717 192.635 95.5432 188.808 97.5466 185.572C99.538 182.299 102.034 179.346 103.821 175.963C107.681 168.672 108.963 159.881 111.814 152.181C109.297 152.257 106.358 160.884 105.233 163.155L98.4673 176.563Z" fill="#20B08E"/>
<path d="M113.744 98.3649L105.308 96.5576L85.25 100.936L102.034 111.848L110.136 110.552L117.597 106.017L127.643 108.929L129.914 111.2L145.471 112.175L165.249 107.633L184.692 106.665L192.467 98.208L205.425 98.8559L215.655 95.671L197.098 82.522L185.681 89.4375C185.681 89.4375 186.977 92.3565 182.442 93.6523C177.907 94.9481 173.364 95.9165 173.364 95.9165H164.594L157.46 97.2123L140.608 100.459C140.608 100.459 122.133 97.8602 120.83 98.5149C119.527 99.1696 113.744 98.3649 113.744 98.3649Z" fill="#20B08E"/>
<path opacity="0.8" d="M113.744 98.3649L105.308 96.5576L85.25 100.936L102.034 111.848L110.136 110.552L117.597 106.017L127.643 108.929L129.914 111.2L145.471 112.175L165.249 107.633L184.692 106.665L192.467 98.208L205.425 98.8559L215.655 95.671L197.098 82.522L185.681 89.4375C185.681 89.4375 186.977 92.3565 182.442 93.6523C177.907 94.9481 173.364 95.9165 173.364 95.9165H164.594L157.46 97.2123L140.608 100.459C140.608 100.459 122.133 97.8602 120.83 98.5149C119.527 99.1696 113.744 98.3649 113.744 98.3649Z" fill="white"/>
<path d="M137.689 136.768C138.521 133.236 139.005 128.482 139.837 124.949C134.961 130.726 134.231 139.155 129.389 144.959C127.295 147.476 124.54 149.365 122.385 151.827C119.084 155.626 117.42 160.536 115.831 165.31C112.298 175.936 108.718 187.052 110.375 198.128C113.696 190.285 113.73 186.684 119.889 178.909C123.483 174.374 124.84 163.905 127.725 158.92C130.924 153.382 133.979 152.7 134.545 148.581C134.987 145.032 135.859 141.551 137.143 138.214L137.689 136.768Z" fill="#20B08E"/>
<path d="M186.138 115.483C189.084 122.064 192.788 127.698 196.368 133.529C199.574 138.78 208.856 140.383 211.863 145.75C219.365 159.138 224.016 163.639 228.613 173.453L235.433 172.035C230.45 162.344 224.223 153.345 216.91 145.266C220.709 146.248 228.504 146.691 228.565 145.948C221.534 144.086 219.072 142.238 212.879 138.412C204.102 132.956 192.174 124.676 186.336 116.165" fill="#20B08E"/>
<path d="M225.79 138.692C226.022 139.326 226.253 139.96 226.472 140.594L216.665 139.646C221.241 141.74 225.967 143.95 229.247 147.769C230.816 149.597 232.146 151.861 234.397 152.727C235.57 153.17 236.859 153.177 238.066 153.518C241.974 154.623 244.033 158.797 245.622 162.541L252.49 158.845C250.444 158.94 248.521 157.76 247.205 156.198C245.973 154.564 244.998 152.752 244.313 150.824C243.803 149.89 243.607 148.816 243.754 147.762C244.013 146.732 245.281 145.921 246.154 146.514C246.018 144.959 244.108 144.373 242.635 143.861C241.162 143.35 239.552 141.699 240.528 140.451C241.394 139.367 243.119 140.124 244.238 140.942C239.928 138.085 230.577 136.884 225.79 138.692Z" fill="#20B08E"/>
<path opacity="0.8" d="M55.3103 192.003C59.9683 185.061 67.7909 179.093 69.2708 170.861L71.6032 157.903C71.6032 157.903 66.0586 175.015 63.467 177.32C60.8754 179.625 53.0938 189.964 53.0938 189.964L55.3103 192.003Z" fill="white"/>
<path opacity="0.8" d="M98.4673 176.563L97.5261 173.03C96.0939 176.749 94.6595 180.464 93.2227 184.174C92.4111 186.281 91.5859 188.45 91.5723 190.708C91.642 191.889 92.0126 193.033 92.6488 194.031C93.285 195.029 94.1657 195.847 95.2073 196.409C94.717 192.635 95.5432 188.808 97.5466 185.572C99.538 182.299 102.034 179.346 103.821 175.963C107.681 168.672 108.963 159.881 111.814 152.181C109.297 152.257 106.358 160.884 105.233 163.155L98.4673 176.563Z" fill="white"/>
<g opacity="0.8">
<path d="M137.689 136.768C138.521 133.236 139.005 128.482 139.837 124.949C134.961 130.726 134.231 139.155 129.389 144.959C127.295 147.476 124.54 149.365 122.385 151.827C119.084 155.626 117.42 160.536 115.831 165.31C112.298 175.936 108.718 187.052 110.375 198.128C113.696 190.285 113.73 186.684 119.889 178.909C123.483 174.374 124.84 163.905 127.725 158.92C130.924 153.382 133.979 152.7 134.545 148.581C134.987 145.032 135.859 141.551 137.143 138.214L137.689 136.768Z" fill="white"/>
</g>
<path opacity="0.8" d="M186.138 115.483C189.084 122.064 192.788 127.698 196.368 133.529C199.574 138.78 208.856 140.383 211.863 145.75C219.365 159.138 224.016 163.639 228.613 173.453L235.433 172.035C230.45 162.344 224.223 153.345 216.91 145.266C220.709 146.248 228.504 146.691 228.565 145.948C221.534 144.086 219.072 142.238 212.879 138.412C204.102 132.956 192.174 124.676 186.336 116.165" fill="white"/>
<path opacity="0.8" d="M225.79 138.692C226.022 139.326 226.253 139.96 226.472 140.594L216.665 139.646C221.241 141.74 225.967 143.95 229.247 147.769C230.816 149.597 232.146 151.861 234.397 152.727C235.57 153.17 236.859 153.177 238.066 153.518C241.974 154.623 244.033 158.797 245.622 162.541L252.49 158.845C250.444 158.94 248.521 157.76 247.205 156.198C245.973 154.564 244.998 152.752 244.313 150.824C243.803 149.89 243.607 148.816 243.754 147.762C244.013 146.732 245.281 145.921 246.154 146.514C246.018 144.959 244.108 144.373 242.635 143.861C241.162 143.35 239.552 141.699 240.528 140.451C241.394 139.367 243.119 140.124 244.238 140.942C239.928 138.085 230.577 136.884 225.79 138.692Z" fill="white"/>
<path d="M100.056 149.508L98.5832 151.643C100.817 150.419 103.363 149.88 105.901 150.095C105.594 150.613 105.28 151.131 104.974 151.656L111.112 148.246C111.214 149.031 111.309 149.815 111.405 150.599L120.059 141.508C108.984 143.022 97.4579 145.205 86.9756 149.174C88.4896 149.317 99.3471 150.538 100.056 149.508Z" fill="#20B08E"/>
<path opacity="0.8" d="M100.056 149.508L98.5832 151.643C100.817 150.419 103.363 149.88 105.901 150.095C105.594 150.613 105.28 151.131 104.974 151.656L111.112 148.246C111.214 149.031 111.309 149.815 111.405 150.599L120.059 141.508C108.984 143.022 97.4579 145.205 86.9756 149.174C88.4896 149.317 99.3471 150.538 100.056 149.508Z" fill="white"/>
<path d="M140.24 84.909C141.474 83.9133 143.452 84.7794 144.223 86.1707C144.993 87.562 144.905 89.2329 144.993 90.8151C145.082 92.3974 145.314 94.1365 146.494 95.1936C145.321 92.4656 147.012 89.1442 149.515 87.5074C152.018 85.8706 155.114 85.4614 158.088 85.1409C157.228 83.9388 156.121 82.9342 154.841 82.1944C153.561 81.4546 152.138 80.9966 150.668 80.8511C149.699 80.7625 148.622 80.7556 147.94 80.0464C147.567 79.5627 147.332 78.988 147.258 78.3823C146.325 73.9493 145.393 69.5163 144.461 65.0833C144.29 67.3463 143.774 69.5701 142.934 71.6782C144.107 68.7456 138.801 61.1072 135.752 62.7099C140.615 67.5999 140.772 78.43 140.24 84.909Z" fill="#20B08E"/>
<path opacity="0.8" d="M140.24 84.909C141.474 83.9133 143.452 84.7794 144.223 86.1707C144.993 87.562 144.905 89.2329 144.993 90.8151C145.082 92.3974 145.314 94.1365 146.494 95.1936C145.321 92.4656 147.012 89.1442 149.515 87.5074C152.018 85.8706 155.114 85.4614 158.088 85.1409C157.228 83.9388 156.121 82.9342 154.841 82.1944C153.561 81.4546 152.138 80.9966 150.668 80.8511C149.699 80.7625 148.622 80.7556 147.94 80.0464C147.567 79.5627 147.332 78.988 147.258 78.3823C146.325 73.9493 145.393 69.5163 144.461 65.0833C144.29 67.3463 143.774 69.5701 142.934 71.6782C144.107 68.7456 138.801 61.1072 135.752 62.7099C140.615 67.5999 140.772 78.43 140.24 84.909Z" fill="white"/>
<path d="M146.528 51.9821C151.138 56.0741 153.812 61.9256 156.362 67.5658L164.055 84.6158C164.87 83.6484 165.394 82.4709 165.569 81.2186C165.744 79.9663 165.562 78.69 165.044 77.5366C165.221 81.765 169.457 85.3523 173.651 84.8408C173.537 81.6809 173.424 78.5232 173.31 75.3678L177.402 83.0472C177.449 78.9672 176.898 74.9025 175.765 70.9826C178.118 72.9331 178.861 76.1453 180.007 78.9756C181.153 81.8059 183.383 84.759 186.432 84.6635C187.38 84.4998 187.796 86.0957 187.025 86.7095C186.254 87.3233 185.163 87.0982 184.297 86.6754C183.431 86.2526 182.619 85.6524 181.658 85.5569C179.23 85.325 177.893 88.1826 176.243 89.9831C173.419 93.0657 168.741 93.3112 164.546 93.3454C164.164 86.7913 154.664 80.1282 154.214 78.4437C150.647 65.1515 152.536 59.1772 146.767 53.1074L148.376 54.7851" fill="#20B08E"/>
<path opacity="0.8" d="M146.528 51.9821C151.138 56.0741 153.812 61.9256 156.362 67.5658L164.055 84.6158C164.87 83.6484 165.394 82.4709 165.569 81.2186C165.744 79.9663 165.562 78.69 165.044 77.5366C165.221 81.765 169.457 85.3523 173.651 84.8408C173.537 81.6809 173.424 78.5232 173.31 75.3678L177.402 83.0472C177.449 78.9672 176.898 74.9025 175.765 70.9826C178.118 72.9331 178.861 76.1453 180.007 78.9756C181.153 81.8059 183.383 84.759 186.432 84.6635C187.38 84.4998 187.796 86.0957 187.025 86.7095C186.254 87.3233 185.163 87.0982 184.297 86.6754C183.431 86.2526 182.619 85.6524 181.658 85.5569C179.23 85.325 177.893 88.1826 176.243 89.9831C173.419 93.0657 168.741 93.3112 164.546 93.3454C164.164 86.7913 154.664 80.1282 154.214 78.4437C150.647 65.1515 152.536 59.1772 146.767 53.1074L148.376 54.7851" fill="white"/>
<path d="M162.132 49.1654C164.274 49.8474 166.633 49.7928 168.761 50.5294C169.011 49.3509 168.988 48.1306 168.693 46.9625C170.064 49.103 170.875 51.5537 171.053 54.0894L153.968 54.2804L152.604 52.7732L155.578 50.925C156.097 51.5053 156.785 51.9077 157.545 52.0754C158.305 52.2431 159.099 52.1675 159.813 51.8593C158.804 50.3862 157.685 48.2924 158.115 46.6284C159.588 46.983 160.482 48.613 162.132 49.1654Z" fill="#20B08E"/>
<path opacity="0.8" d="M162.132 49.1654C164.274 49.8474 166.633 49.7928 168.761 50.5294C169.011 49.3509 168.988 48.1306 168.693 46.9625C170.064 49.103 170.875 51.5537 171.053 54.0894L153.968 54.2804L152.604 52.7732L155.578 50.925C156.097 51.5053 156.785 51.9077 157.545 52.0754C158.305 52.2431 159.099 52.1675 159.813 51.8593C158.804 50.3862 157.685 48.2924 158.115 46.6284C159.588 46.983 160.482 48.613 162.132 49.1654Z" fill="white"/>
<path d="M117.918 107.927C117.918 107.927 118.566 113.437 117.236 117.652C115.906 121.867 119.179 122.835 122.746 117.972C126.313 113.11 126.961 110.839 123.394 109.222C119.827 107.606 117.918 107.927 117.918 107.927Z" fill="#20B08E"/>
<path opacity="0.8" d="M117.918 107.927C117.918 107.927 118.566 113.437 117.236 117.652C115.906 121.867 119.179 122.835 122.746 117.972C126.313 113.11 126.961 110.839 123.394 109.222C119.827 107.606 117.918 107.927 117.918 107.927Z" fill="white"/>
<path d="M91.3403 109.222C91.3403 109.222 93.6114 114.733 93.284 118.62C92.9567 122.508 96.203 118.3 96.203 118.3L95.2277 124.124C95.2277 124.124 100.09 117.645 99.4425 114.078C98.7946 110.511 91.3403 109.222 91.3403 109.222Z" fill="#20B08E"/>
<path opacity="0.8" d="M91.3403 109.222C91.3403 109.222 93.6114 114.733 93.284 118.62C92.9567 122.508 96.203 118.3 96.203 118.3L95.2277 124.124C95.2277 124.124 100.09 117.645 99.4425 114.078C98.7946 110.511 91.3403 109.222 91.3403 109.222Z" fill="white"/>
<path d="M225.742 129.246C225.306 127.745 222.803 127.541 222.127 128.946C222.809 127.629 221.193 126.388 220.15 125.338C217.476 122.61 218.069 118.211 218.847 114.487C217.3 115.524 216.084 116.984 215.345 118.693C214.606 120.402 214.375 122.287 214.68 124.124C214.355 123.452 213.785 122.931 213.087 122.667C212.388 122.404 211.616 122.418 210.928 122.708C210.24 122.998 209.69 123.54 209.391 124.224C209.091 124.907 209.066 125.68 209.319 126.381C207.528 126.772 205.687 126.875 203.863 126.688C202.957 126.585 202.088 126.272 201.325 125.772C200.562 125.272 199.927 124.6 199.471 123.81C199.076 123.012 198.653 121.901 197.766 121.989C197.159 122.051 196.805 122.671 196.327 123.04C194.793 124.219 192.617 122.521 191.915 120.721C191.212 118.92 191.008 116.738 189.48 115.558C189.385 116.82 189.289 118.081 189.2 119.343L189.439 121.007C191.794 125.554 194.152 130.087 196.511 134.606C197.084 133.038 197.875 131.265 199.471 130.787C200.869 130.371 202.315 131.128 203.618 131.776C209.277 134.565 215.604 135.711 221.882 135.084C222.186 133.933 222.489 132.781 222.789 131.626L231.88 134.981L225.742 129.246Z" fill="#20B08E"/>
<path opacity="0.8" d="M225.742 129.246C225.306 127.745 222.803 127.541 222.127 128.946C222.809 127.629 221.193 126.388 220.15 125.338C217.476 122.61 218.069 118.211 218.847 114.487C217.3 115.524 216.084 116.984 215.345 118.693C214.606 120.402 214.375 122.287 214.68 124.124C214.355 123.452 213.785 122.931 213.087 122.667C212.388 122.404 211.616 122.418 210.928 122.708C210.24 122.998 209.69 123.54 209.391 124.224C209.091 124.907 209.066 125.68 209.319 126.381C207.528 126.772 205.687 126.875 203.863 126.688C202.957 126.585 202.088 126.272 201.325 125.772C200.562 125.272 199.927 124.6 199.471 123.81C199.076 123.012 198.653 121.901 197.766 121.989C197.159 122.051 196.805 122.671 196.327 123.04C194.793 124.219 192.617 122.521 191.915 120.721C191.212 118.92 191.008 116.738 189.48 115.558C189.385 116.82 189.289 118.081 189.2 119.343L189.439 121.007C191.794 125.554 194.152 130.087 196.511 134.606C197.084 133.038 197.875 131.265 199.471 130.787C200.869 130.371 202.315 131.128 203.618 131.776C209.277 134.565 215.604 135.711 221.882 135.084C222.186 133.933 222.489 132.781 222.789 131.626L231.88 134.981L225.742 129.246Z" fill="white"/>
</g>
<path d="M21.333 189.93L48.2857 151.104L64.1285 146.33L67.6544 134.136C68.4808 131.282 69.889 128.63 71.7905 126.347C73.692 124.064 76.0455 122.2 78.7029 120.871L85.2501 100.936L105.314 96.162L128.441 49.2404L143.752 48.7153L158.006 41.8543L170.677 36.5688L184.406 52.4117L197.098 82.522L215.683 95.6505L234.669 133.672C251.02 139.672 264.939 150.892 274.273 165.596L291.896 193.354L115.872 202.847L21.333 189.93Z" stroke="#20B08E" stroke-linecap="round" stroke-linejoin="round"/>
<path d="M96.7555 174.299C94.8504 181.173 92.9499 188.048 91.054 194.922" stroke="#20B08E" stroke-linecap="round" stroke-linejoin="round"/>
<path d="M182.38 98.0239L194.418 91.8109" stroke="#20B08E" stroke-linecap="round" stroke-linejoin="round"/>
<path d="M191.533 108.233C194.023 105.907 196.878 104.004 199.983 102.6C202.656 101.393 205.855 102.409 208.788 102.382" stroke="#20B08E" stroke-linecap="round" stroke-linejoin="round"/>
<path d="M55.3103 192.003C59.9684 185.061 67.7909 179.093 69.2708 170.861L71.6033 157.903" stroke="#20B08E" stroke-linecap="round" stroke-linejoin="round"/>
<path d="M130.883 52.1798L134.45 58.3178C133.114 59.1329 131.962 60.2172 131.069 61.5018C130.175 62.7864 129.559 64.243 129.26 65.7789C128.291 70.9621 127.964 82.3038 127.964 82.3038C127.964 82.3038 124.404 83.5996 123.108 86.8459C121.812 90.0922 120.837 98.5149 120.837 98.5149L140.615 100.459L154.255 97.8602" stroke="#20B08E" stroke-linecap="round" stroke-linejoin="round"/>
<path d="M144.823 51.832L149.031 56.3673L153.893 78.43L160.031 82.6448L163.926 93.3385L176.243 91.7222C176.243 91.7222 176.89 87.1801 180.13 86.5322C181.011 86.3189 181.934 86.3581 182.794 86.6451C183.654 86.9322 184.416 87.4555 184.993 88.1553L188.232 86.2116" stroke="#20B08E" stroke-linecap="round" stroke-linejoin="round"/>
<path d="M154.541 55.092H169.777L173.344 53.4756C173.344 53.4756 176.263 55.092 178.207 54.4441C179.681 54.0141 181.206 53.7847 182.742 53.7621" fill="white"/>
<path d="M154.541 55.092H169.777L173.344 53.4756C173.344 53.4756 176.263 55.092 178.207 54.4441C179.681 54.0141 181.206 53.7847 182.742 53.7621" stroke="#20B08E" stroke-linecap="round" stroke-linejoin="round"/>
<path d="M212.886 96.9054L205.432 98.8491C205.432 98.8491 195.059 98.2012 192.474 98.2012C189.889 98.2012 184.692 106.631 184.692 106.631L165.249 107.599L145.471 112.141C145.471 112.141 130.562 112.462 128.291 110.191C126.02 107.92 117.597 105.983 117.597 105.983L110.136 110.518L102.034 111.848L90.3718 105.71" stroke="#20B08E" stroke-linecap="round" stroke-linejoin="round"/>
<path d="M67.0339 146.821L84.2135 148.437L97.5262 142.606C97.5262 142.606 104.98 140.335 116.977 139.687" stroke="#20B08E" stroke-linecap="round" stroke-linejoin="round"/>
<path d="M204.136 132.233C204.136 132.233 216.774 135.152 221.964 134.504C221.964 134.504 221.282 131.265 223.907 131.265C226.533 131.265 228.77 134.504 228.77 134.504L232.657 134.177" stroke="#20B08E" stroke-linecap="round" stroke-linejoin="round"/>
<path d="M185.981 115.381L196.355 133.529L211.911 145.198L224.555 166.913L227.795 172.751" stroke="#20B08E" stroke-linecap="round" stroke-linejoin="round"/>
<path d="M245.943 162.05C245.943 162.05 243.999 158.49 241.735 155.23C239.471 151.97 234.274 152.966 234.274 152.966L229.091 146.146L212.239 138.071" stroke="#20B08E" stroke-linecap="round" stroke-linejoin="round"/>
<path d="M115.326 146.494C115.326 146.494 110.136 155.571 108.192 163.346C107.047 167.968 105.642 172.522 103.984 176.986C103.984 176.986 99.7697 181.194 97.8465 184.44C95.9232 187.686 95.248 195.134 95.248 195.134" stroke="#20B08E" stroke-linecap="round" stroke-linejoin="round"/>
<path d="M111.261 198.319C112.111 191.015 115.154 184.14 119.991 178.602L125.638 160.427C127.118 155.653 130.228 153.607 134.415 150.879V148.833L137.982 135.541" stroke="#20B08E" stroke-linecap="round" stroke-linejoin="round"/>
<path d="M323.166 171.612C322.979 174.794 322.668 177.959 322.231 181.105C321.658 185.236 320.865 189.334 319.858 193.381C317.512 202.787 314.055 211.881 309.56 220.47C307.459 224.522 305.139 228.456 302.61 232.255C251.392 233.81 145.812 235.058 112.666 220.484C112.332 220.341 111.984 220.191 111.698 220.04C111.412 219.89 111.071 219.74 110.771 219.59C110.348 219.379 109.938 219.161 109.55 218.908C109.161 218.69 108.786 218.465 108.418 218.226L108.356 218.185L107.374 217.538C106.747 217.093 106.146 216.612 105.574 216.099L105.192 215.73C105.062 215.607 104.953 215.492 104.837 215.362C104.594 215.119 104.366 214.862 104.155 214.591C104.055 214.459 103.96 214.33 103.869 214.203C103.685 213.937 103.521 213.671 103.371 213.405C103.289 213.261 103.221 213.111 103.146 212.975C103.071 212.839 103.112 212.893 103.091 212.845C103.023 212.682 102.955 212.525 102.893 212.361C102.832 212.197 102.777 212.013 102.723 211.836C102.668 211.659 102.634 211.481 102.6 211.304C102.566 211.127 102.525 210.874 102.505 210.656C102.404 209.576 102.541 208.486 102.907 207.464C102.962 207.28 103.03 207.11 103.098 206.932C103.316 206.37 103.58 205.827 103.889 205.309C104.101 204.941 104.339 204.573 104.571 204.204C104.701 204.02 104.837 203.823 104.987 203.632C105.445 203.026 105.934 202.446 106.453 201.892C106.644 201.688 106.829 201.497 107.026 201.299L107.381 201.108L107.626 200.972C108.411 200.563 109.986 199.799 112.496 198.769L112.953 198.585L114.078 198.128C115.542 197.546 117.27 196.909 119.261 196.218L119.943 195.973C121.601 195.4 123.449 194.8 125.474 194.172L126.361 193.899C126.729 193.79 127.104 193.668 127.493 193.558C128.271 193.32 129.069 193.081 129.901 192.876C132.922 192.003 136.277 191.09 140.001 190.148L142.484 189.535L145.061 188.921C148.13 188.189 151.422 187.457 154.937 186.725C155.939 186.52 156.983 186.302 158.006 186.097L159.581 185.777L161.859 185.333L164.485 184.829L169.648 183.881L174.333 183.069C175.601 182.858 176.89 182.64 178.214 182.428L180.832 182.012L183.11 181.651L186.759 181.098L188.805 180.791C190.851 180.491 192.986 180.191 195.161 179.898L199.437 179.318L201.797 179.018L204.068 178.725C207.178 178.343 210.381 177.961 213.678 177.579C215.242 177.402 216.833 177.227 218.452 177.054C218.772 177.054 219.086 176.986 219.406 176.952L220.954 176.788C222.639 176.611 224.364 176.433 226.083 176.263C226.479 176.222 226.881 176.188 227.277 176.14C228.641 176.011 229.97 175.874 231.369 175.751C233.121 175.581 234.908 175.417 236.709 175.26L239.73 174.994L244.04 174.633C248.173 174.301 252.42 173.976 256.78 173.658L259.781 173.446L262.822 173.242L269.254 172.832C271.259 172.71 273.291 172.587 275.344 172.478C276.422 172.416 277.492 172.348 278.577 172.3L282.307 172.096L288.445 171.796L291.855 171.639L323.166 171.612Z" fill="#20B08E"/>
<path opacity="0.2" d="M323.166 171.612C322.979 174.794 322.668 177.959 322.231 181.105C321.658 185.236 320.865 189.334 319.858 193.381C317.512 202.787 314.055 211.881 309.56 220.47C307.459 224.522 305.139 228.456 302.61 232.255C251.392 233.81 145.812 235.058 112.666 220.484C112.332 220.341 111.984 220.191 111.698 220.04C111.412 219.89 111.071 219.74 110.771 219.59C110.348 219.379 109.938 219.161 109.55 218.908C109.161 218.69 108.786 218.465 108.418 218.226L108.356 218.185L107.374 217.538C106.747 217.093 106.146 216.612 105.574 216.099L105.192 215.73C105.062 215.607 104.953 215.492 104.837 215.362C104.594 215.119 104.366 214.862 104.155 214.591C104.055 214.459 103.96 214.33 103.869 214.203C103.685 213.937 103.521 213.671 103.371 213.405C103.289 213.261 103.221 213.111 103.146 212.975C103.071 212.839 103.112 212.893 103.091 212.845C103.023 212.682 102.955 212.525 102.893 212.361C102.832 212.197 102.777 212.013 102.723 211.836C102.668 211.659 102.634 211.481 102.6 211.304C102.566 211.127 102.525 210.874 102.505 210.656C102.404 209.576 102.541 208.486 102.907 207.464C102.962 207.28 103.03 207.11 103.098 206.932C103.316 206.37 103.58 205.827 103.889 205.309C104.101 204.941 104.339 204.573 104.571 204.204C104.701 204.02 104.837 203.823 104.987 203.632C105.445 203.026 105.934 202.446 106.453 201.892C106.644 201.688 106.829 201.497 107.026 201.299L107.381 201.108L107.626 200.972C108.411 200.563 109.986 199.799 112.496 198.769L112.953 198.585L114.078 198.128C115.542 197.546 117.27 196.909 119.261 196.218L119.943 195.973C121.601 195.4 123.449 194.8 125.474 194.172L126.361 193.899C126.729 193.79 127.104 193.668 127.493 193.558C128.271 193.32 129.069 193.081 129.901 192.876C132.922 192.003 136.277 191.09 140.001 190.148L142.484 189.535L145.061 188.921C148.13 188.189 151.422 187.457 154.937 186.725C155.939 186.52 156.983 186.302 158.006 186.097L159.581 185.777L161.859 185.333L164.485 184.829L169.648 183.881L174.333 183.069C175.601 182.858 176.89 182.64 178.214 182.428L180.832 182.012L183.11 181.651L186.759 181.098L188.805 180.791C190.851 180.491 192.986 180.191 195.161 179.898L199.437 179.318L201.797 179.018L204.068 178.725C207.178 178.343 210.381 177.961 213.678 177.579C215.242 177.402 216.833 177.227 218.452 177.054C218.772 177.054 219.086 176.986 219.406 176.952L220.954 176.788C222.639 176.611 224.364 176.433 226.083 176.263C226.479 176.222 226.881 176.188 227.277 176.14C228.641 176.011 229.97 175.874 231.369 175.751C233.121 175.581 234.908 175.417 236.709 175.26L239.73 174.994L244.04 174.633C248.173 174.301 252.42 173.976 256.78 173.658L259.781 173.446L262.822 173.242L269.254 172.832C271.259 172.71 273.291 172.587 275.344 172.478C276.422 172.416 277.492 172.348 278.577 172.3L282.307 172.096L288.445 171.796L291.855 171.639L323.166 171.612Z" fill="white"/>
<path d="M323.166 171.612C322.979 174.794 322.668 177.959 322.232 181.105C321.658 185.236 320.866 189.334 319.858 193.381H291.896C239.9 195.714 201.429 200.201 173.467 204.975C139.496 210.793 121.035 217.067 112.694 220.484C112.36 220.341 112.012 220.191 111.725 220.04C111.439 219.89 111.098 219.74 110.798 219.59C110.375 219.379 109.966 219.161 109.577 218.908C109.188 218.69 108.813 218.465 108.445 218.226L108.384 218.185L107.402 217.538C106.768 217.1 106.167 216.62 105.601 216.099L105.219 215.73C105.09 215.607 104.98 215.492 104.864 215.362C104.622 215.119 104.394 214.862 104.182 214.591C104.082 214.459 103.987 214.33 103.896 214.203C103.712 213.948 103.546 213.681 103.398 213.405C103.316 213.261 103.248 213.111 103.173 212.975C103.098 212.839 103.139 212.893 103.119 212.845C103.05 212.682 102.982 212.525 102.921 212.361C102.859 212.197 102.805 212.013 102.75 211.836C102.696 211.659 102.662 211.481 102.628 211.304C102.593 211.127 102.552 210.874 102.532 210.656C102.431 209.576 102.569 208.486 102.934 207.464C102.989 207.28 103.057 207.11 103.125 206.932C103.343 206.37 103.608 205.827 103.916 205.309C104.122 204.928 104.35 204.559 104.598 204.204C104.728 204.02 104.864 203.823 105.015 203.632C105.472 203.026 105.962 202.446 106.481 201.892C106.658 201.701 106.849 201.497 107.047 201.299L107.402 201.108L107.647 200.972C108.431 200.563 110.007 199.799 112.517 198.769L112.973 198.585L114.099 198.128C115.563 197.546 117.291 196.909 119.282 196.218L119.964 195.973C121.621 195.4 123.469 194.8 125.495 194.172L126.382 193.899C126.75 193.79 127.125 193.668 127.514 193.558C128.291 193.32 129.089 193.081 129.921 192.876C132.942 192.003 136.298 191.09 140.022 190.148L142.504 189.535L145.082 188.921C148.151 188.189 151.443 187.457 154.957 186.725C155.96 186.52 157.003 186.302 158.026 186.097L159.602 185.777L161.88 185.333L164.505 184.829L169.668 183.881L174.353 183.069C175.622 182.858 176.911 182.64 178.234 182.428L180.853 182.012L183.131 181.651L186.779 181.098L188.825 180.791C190.871 180.491 193.006 180.191 195.182 179.898L199.458 179.318L201.818 179.018L204.089 178.725C207.199 178.343 210.402 177.961 213.698 177.579L218.472 177.054C218.793 177.054 219.106 176.986 219.427 176.952L220.975 176.788L226.104 176.263C226.499 176.222 226.902 176.188 227.297 176.14L231.389 175.751L236.729 175.26L239.75 174.994L244.061 174.633C248.194 174.301 252.44 173.976 256.8 173.658L259.801 173.446L262.843 173.242L269.274 172.832C271.279 172.71 273.312 172.587 275.364 172.478C276.442 172.416 277.513 172.348 278.597 172.3L282.328 172.096L288.466 171.796L291.876 171.639L323.166 171.612Z" fill="#20B08E"/>
<path opacity="0.3" d="M323.166 171.612C322.979 174.794 322.668 177.959 322.232 181.105C321.658 185.236 320.866 189.334 319.858 193.381H291.896C239.9 195.714 201.429 200.201 173.467 204.975C139.496 210.793 121.035 217.067 112.694 220.484C112.36 220.341 112.012 220.191 111.725 220.04C111.439 219.89 111.098 219.74 110.798 219.59C110.375 219.379 109.966 219.161 109.577 218.908C109.188 218.69 108.813 218.465 108.445 218.226L108.384 218.185L107.402 217.538C106.768 217.1 106.167 216.62 105.601 216.099L105.219 215.73C105.09 215.607 104.98 215.492 104.864 215.362C104.622 215.119 104.394 214.862 104.182 214.591C104.082 214.459 103.987 214.33 103.896 214.203C103.712 213.948 103.546 213.681 103.398 213.405C103.316 213.261 103.248 213.111 103.173 212.975C103.098 212.839 103.139 212.893 103.119 212.845C103.05 212.682 102.982 212.525 102.921 212.361C102.859 212.197 102.805 212.013 102.75 211.836C102.696 211.659 102.662 211.481 102.628 211.304C102.593 211.127 102.552 210.874 102.532 210.656C102.431 209.576 102.569 208.486 102.934 207.464C102.989 207.28 103.057 207.11 103.125 206.932C103.343 206.37 103.608 205.827 103.916 205.309C104.122 204.928 104.35 204.559 104.598 204.204C104.728 204.02 104.864 203.823 105.015 203.632C105.472 203.026 105.962 202.446 106.481 201.892C106.658 201.701 106.849 201.497 107.047 201.299L107.402 201.108L107.647 200.972C108.431 200.563 110.007 199.799 112.517 198.769L112.973 198.585L114.099 198.128C115.563 197.546 117.291 196.909 119.282 196.218L119.964 195.973C121.621 195.4 123.469 194.8 125.495 194.172L126.382 193.899C126.75 193.79 127.125 193.668 127.514 193.558C128.291 193.32 129.089 193.081 129.921 192.876C132.942 192.003 136.298 191.09 140.022 190.148L142.504 189.535L145.082 188.921C148.151 188.189 151.443 187.457 154.957 186.725C155.96 186.52 157.003 186.302 158.026 186.097L159.602 185.777L161.88 185.333L164.505 184.829L169.668 183.881L174.353 183.069C175.622 182.858 176.911 182.64 178.234 182.428L180.853 182.012L183.131 181.651L186.779 181.098L188.825 180.791C190.871 180.491 193.006 180.191 195.182 179.898L199.458 179.318L201.818 179.018L204.089 178.725C207.199 178.343 210.402 177.961 213.698 177.579L218.472 177.054C218.793 177.054 219.106 176.986 219.427 176.952L220.975 176.788L226.104 176.263C226.499 176.222 226.902 176.188 227.297 176.14L231.389 175.751L236.729 175.26L239.75 174.994L244.061 174.633C248.194 174.301 252.44 173.976 256.8 173.658L259.801 173.446L262.843 173.242L269.274 172.832C271.279 172.71 273.312 172.587 275.364 172.478C276.442 172.416 277.513 172.348 278.597 172.3L282.328 172.096L288.466 171.796L291.876 171.639L323.166 171.612Z" fill="white"/>
<path d="M319.858 193.354H291.896C239.9 195.686 201.429 200.174 173.467 204.948C139.496 210.765 121.035 217.04 112.694 220.456" stroke="#515B60" stroke-miterlimit="10"/>
<path d="M302.535 232.337L151.998 237.111L44.3779 240.48C32.06 224.872 23.6431 206.551 19.8259 187.038C21.9401 187.291 42.7002 189.766 72.2376 193.238L93.3114 195.734L114.112 198.155C133.079 200.365 153.375 202.697 173.446 204.975C221.186 210.431 267.712 215.519 292.162 217.708C298.022 218.195 303.838 219.118 309.56 220.47C307.459 224.522 305.139 228.456 302.61 232.255L302.535 232.337Z" fill="#20B08E"/>
<path opacity="0.1" d="M302.535 232.337L151.998 237.111L44.3779 240.48C32.06 224.872 23.6431 206.551 19.8259 187.038C21.9401 187.291 42.7002 189.766 72.2376 193.238L93.3114 195.734L114.112 198.155C133.079 200.365 153.375 202.697 173.446 204.975C221.186 210.431 267.712 215.519 292.162 217.708C298.022 218.195 303.838 219.118 309.56 220.47C307.459 224.522 305.139 228.456 302.61 232.255L302.535 232.337Z" fill="#263238"/>
<path d="M19.7781 187.025C21.8923 187.277 42.6524 189.753 72.1898 193.224L93.3113 195.734L114.112 198.155C133.079 200.365 153.375 202.697 173.446 204.975C221.186 210.431 267.712 215.519 292.162 217.708C298.022 218.195 303.837 219.118 309.56 220.47" stroke="#515B60" stroke-miterlimit="10"/>
<path d="M233.442 214.257L239.825 203.025L246.359 214.168L233.442 214.257Z" fill="white"/>
<path d="M235.215 214.128L239.812 206.046L244.511 214.066L235.215 214.128Z" fill="#263238"/>
<path d="M239.812 206.046L239.866 214.216" stroke="#3C464C" stroke-linecap="round" stroke-linejoin="round"/>
<path d="M239.825 203.025L246.359 214.168L259.897 214.08L253.356 202.936L239.825 203.025Z" fill="#263238"/>
<path d="M245.929 205.875L248.514 210.288L253.868 210.254L251.283 205.841L245.929 205.875Z" fill="#263238"/>
<path d="M323.377 164.56C323.377 165.242 323.377 165.876 323.377 166.524C323.377 166.804 323.377 167.09 323.377 167.37C323.377 167.827 323.377 168.29 323.343 168.734C323.343 169.006 323.343 169.286 323.309 169.559C323.309 170.241 323.254 170.923 323.207 171.605C323.159 172.287 323.118 173.044 323.063 173.753C323.029 174.183 322.995 174.612 322.948 175.042C322.9 175.472 322.879 175.915 322.832 176.345C322.763 177.027 322.688 177.756 322.6 178.452C322.552 178.936 322.491 179.434 322.422 179.925C322.422 180.184 322.361 180.437 322.32 180.696C322.32 180.825 322.32 180.969 322.272 181.098C309.846 185.047 280.902 188.743 216.699 177.866C216.699 177.866 217.701 177.586 219.502 176.918C228.163 173.726 255.225 161.757 276.865 130.603C288.984 113.157 301.471 117.645 311.381 127.439C318.903 140.922 323.377 153.743 323.377 164.56Z" fill="#20B08E"/>
<g opacity="0.2">
<path d="M323.377 164.56C323.377 165.242 323.377 165.876 323.377 166.524C323.377 166.804 323.377 167.09 323.377 167.37C323.377 167.827 323.377 168.29 323.343 168.734C323.343 169.006 323.343 169.286 323.309 169.559C323.309 170.241 323.254 170.923 323.207 171.605C323.159 172.287 323.118 173.044 323.063 173.753C323.029 174.183 322.995 174.612 322.948 175.042C322.9 175.472 322.879 175.915 322.832 176.345C322.763 177.027 322.688 177.756 322.6 178.452C322.552 178.936 322.491 179.434 322.422 179.925C322.422 180.184 322.361 180.437 322.32 180.696C322.32 180.825 322.32 180.969 322.272 181.098C309.846 185.047 280.902 188.743 216.699 177.866C216.699 177.866 217.701 177.586 219.502 176.918C228.163 173.726 255.225 161.757 276.865 130.603C288.984 113.157 301.471 117.645 311.381 127.439C318.903 140.922 323.377 153.743 323.377 164.56Z" fill="white"/>
</g>
<path d="M322.218 181.105C309.792 185.054 280.848 188.75 216.644 177.872" stroke="#515B60" stroke-miterlimit="10"/>
<path d="M16.8794 208.938L27.0958 180H19.7847L28.5484 155.175H22.6832L37.3121 113.73L51.941 155.175H46.0758L54.8395 180H47.5285L57.7448 208.938H16.8794Z" fill="#20B08E"/>
<path d="M38.6693 227.133L37.0188 142.299L36.6096 226.622L38.6693 227.133Z" fill="#515B60"/>
<path d="M36.8279 142.961C36.8279 142.961 33.5816 148.54 27.7505 150.231C27.7505 150.231 33.8885 148.867 36.9848 144.038L36.8279 142.961Z" fill="#515B60"/>
<path d="M37.7417 188.566C37.7417 188.566 31.9447 198.346 22.2603 201.17C22.2603 201.17 32.5857 198.489 37.7007 190.51L37.7417 188.566Z" fill="#515B60"/>
<path d="M36.8826 163.373C36.8826 163.373 31.8153 171.994 23.0857 174.524C23.0857 174.524 32.2995 172.437 36.9098 165.249L36.8826 163.373Z" fill="#515B60"/>
<path d="M37.3872 169.463C37.3872 169.463 42.0657 177.804 50.4952 180.375C50.4952 180.375 41.6292 178.282 37.1553 171.107L37.3872 169.463Z" fill="#515B60"/>
<path d="M38.1305 193.115C38.1305 193.115 43.3274 202.37 52.6776 205.207C52.6776 205.207 42.809 202.888 37.8782 194.922L38.1305 193.115Z" fill="#515B60"/>
<path d="M37.2916 145.266C37.2916 145.266 40.422 150.838 46.0553 152.543C46.0553 152.543 40.1083 151.179 37.1348 146.35L37.2916 145.266Z" fill="#515B60"/>
<path d="M257.591 208.91L261.322 198.332H258.648L261.854 189.255H259.712L265.059 174.115L270.406 189.255H268.258L271.463 198.332H268.79L272.52 208.91H257.591Z" fill="#20B08E"/>
<path d="M265.55 215.56L264.95 184.556L264.8 215.376L265.55 215.56Z" fill="#515B60"/>
<path d="M264.875 184.822C264.105 186.063 262.933 187.002 261.554 187.482C262.908 187.142 264.101 186.341 264.93 185.218L264.875 184.822Z" fill="#515B60"/>
<path d="M265.209 201.463C265.209 201.463 263.095 205.036 259.555 206.073C259.555 206.073 263.327 205.091 265.196 202.172L265.209 201.463Z" fill="#515B60"/>
<path d="M264.902 192.256C264.902 192.256 263.047 195.407 259.855 196.348C259.855 196.348 263.225 195.591 264.909 192.938L264.902 192.256Z" fill="#515B60"/>
<path d="M265.086 194.479C265.086 194.479 266.791 197.534 269.86 198.462C269.86 198.462 266.607 197.698 264.984 195.052L265.086 194.479Z" fill="#515B60"/>
<path d="M265.352 203.127C265.352 203.127 267.255 206.537 270.672 207.546C270.672 207.546 267.064 206.701 265.264 203.788L265.352 203.127Z" fill="#515B60"/>
<path d="M265.046 185.627C265.779 186.853 266.91 187.792 268.251 188.287C266.931 187.941 265.776 187.138 264.991 186.022L265.046 185.627Z" fill="#515B60"/>
<path d="M65.1445 219.243L74.2697 193.381H67.7361L75.5655 171.189H70.3277L83.4017 134.149L96.4756 171.189H91.2379L99.0672 193.381H92.5336L101.659 219.243H65.1445Z" fill="#20B08E"/>
<path d="M84.6156 235.508L83.1425 159.683L82.7742 235.051L84.6156 235.508Z" fill="#515B60"/>
<path d="M82.9583 160.27C82.9583 160.27 80.053 165.255 74.8425 166.769C74.8425 166.769 80.3463 165.521 83.1016 161.232L82.9583 160.27Z" fill="#515B60"/>
<path d="M83.7836 201.033C83.7836 201.033 78.6072 209.776 69.9458 212.3C69.9458 212.3 79.1733 209.899 83.7495 202.752L83.7836 201.033Z" fill="#515B60"/>
<path d="M83.0198 178.52C83.0198 178.52 78.4913 186.22 70.6892 188.484C70.6892 188.484 78.9209 186.622 83.0402 180.198L83.0198 178.52Z" fill="#515B60"/>
<path d="M83.47 183.963C83.47 183.963 87.6506 191.417 95.1867 193.702C95.1867 193.702 87.2346 191.833 83.2654 185.415L83.47 183.963Z" fill="#515B60"/>
<path d="M84.1313 205.098C84.1313 205.098 88.7757 213.377 97.137 215.908C97.137 215.908 88.312 213.862 83.9062 206.714L84.1313 205.098Z" fill="#515B60"/>
<path d="M83.3813 162.316C83.3813 162.316 86.1775 167.301 91.2175 168.822C91.2175 168.822 85.8979 167.574 83.2449 163.291L83.3813 162.316Z" fill="#515B60"/>
<path d="M271.675 205.2L279.572 182.824H273.918L280.697 163.619H276.162L287.476 131.565L298.791 163.619H294.256L301.035 182.824H295.374L303.278 205.2H271.675Z" fill="#20B08E"/>
<path d="M288.52 219.277L287.245 153.661L286.931 218.881L288.52 219.277Z" fill="#515B60"/>
<path d="M287.122 154.173C287.122 154.173 284.612 158.49 280.097 159.799C280.097 159.799 284.871 158.722 287.245 155.025L287.122 154.173Z" fill="#515B60"/>
<path d="M287.804 189.446C287.804 189.446 283.323 197.009 275.835 199.199C275.835 199.199 283.814 197.118 287.777 190.946L287.804 189.446Z" fill="#515B60"/>
<path d="M287.122 169.961C287.122 169.961 283.201 176.624 276.449 178.582C276.449 178.582 283.576 176.972 287.142 171.414L287.122 169.961Z" fill="#515B60"/>
<path d="M287.531 174.674C287.531 174.674 291.153 181.126 297.672 183.103C297.672 183.103 290.791 181.487 287.354 175.929L287.531 174.674Z" fill="#515B60"/>
<path d="M288.111 192.965C288.111 192.965 292.128 200.126 299.364 202.315C299.364 202.315 291.725 200.522 287.913 194.363L288.111 192.965Z" fill="#515B60"/>
<path d="M287.456 155.926C287.456 155.926 289.877 160.243 294.235 161.559C294.235 161.559 289.638 160.481 287.34 156.785L287.456 155.926Z" fill="#515B60"/>
<path d="M300.919 232.698C274.389 272.52 225.217 299.255 168.931 299.255C116.554 299.255 70.3279 276.067 42.7615 240.78L300.919 232.698Z" fill="#757575"/>
<path d="M109.577 232.992L112.585 235.604L110.539 227.461C111.807 230.052 113.071 232.644 114.331 235.235C114.162 232.421 113.994 229.609 113.826 226.799C114.563 229.764 115.301 232.73 116.043 235.699C116.793 232.644 117.547 229.586 118.307 226.526C118.343 231.678 118.382 236.827 118.423 241.974C116.111 242.055 113.124 243.01 111.889 240.807C110.655 238.605 111.282 235.461 109.577 232.992Z" fill="#20B08E"/>
<path d="M233.156 229.37L237.152 232.848C236.243 229.234 235.347 225.622 234.465 222.011C236.143 225.458 237.823 228.904 239.505 232.351L238.823 221.132L241.769 232.971C242.774 228.906 243.779 224.839 244.784 220.77C244.829 227.617 244.879 234.467 244.934 241.319C241.865 241.428 237.895 242.683 236.245 239.764C234.547 236.729 235.42 232.651 233.156 229.37Z" fill="#20B08E"/>
<path d="M288.595 218.24C290.273 219.704 291.955 221.166 293.642 222.625L290.232 208.951C292.355 213.302 294.474 217.653 296.588 222.005C296.311 217.285 296.029 212.563 295.743 207.839C296.984 212.841 298.223 217.824 299.459 222.789L303.265 207.389C303.324 216.028 303.388 224.667 303.456 233.305C299.575 233.442 294.59 235.038 292.489 231.341C290.348 227.508 291.453 222.366 288.595 218.24Z" fill="#20B08E"/>
<path d="M118.948 291.535L128.734 273.734L145.682 270.836L154.241 263.934C154.241 263.934 163.789 261.267 173.283 261.772C182.776 262.277 188.028 264.5 188.028 264.5L191.84 268.081L200.965 269.983C200.965 269.983 209.647 277.485 210.711 277.178C211.775 276.872 225.128 278.113 225.128 278.113L231.307 288.063C231.307 288.063 183.103 330.92 118.948 291.535Z" fill="#263238"/>
<path d="M153.853 270.754C155.69 269.062 158.011 267.989 160.49 267.687C162.969 267.385 165.48 267.868 167.67 269.069C167.82 268.033 167.977 266.989 168.127 265.953L173.003 267.269C173.187 268.299 173.378 269.315 173.562 270.365C178.921 269.925 184.291 271.085 188.989 273.7C188.935 274.989 188.88 276.278 188.819 277.567C189.247 276.611 189.983 275.826 190.91 275.338C191.837 274.85 192.901 274.687 193.932 274.876C194.962 275.065 195.9 275.594 196.594 276.378C197.288 277.163 197.698 278.158 197.76 279.204C198.595 278.941 199.485 278.907 200.338 279.105C201.191 279.302 201.975 279.725 202.609 280.329L207.274 277.458C203.864 273.557 198.285 272.595 193.429 270.761C185.927 267.924 178.732 262.447 170.773 263.566L172.246 265.114C171.862 265.38 171.421 265.553 170.958 265.618C170.495 265.684 170.023 265.64 169.58 265.49C169.138 265.34 168.736 265.088 168.408 264.756C168.08 264.423 167.834 264.017 167.69 263.573L154.31 265.005C154.347 265.638 154.347 266.274 154.31 266.908C154.016 266.71 153.628 266.478 153.389 266.273C153.355 267.105 154.651 269.949 153.853 270.754Z" fill="#5C5C5C"/>
<path d="M141.351 284.715L137.184 277.574C142.224 277.431 146.732 280.445 150.865 283.337L146.003 274.955C145.925 274.695 145.795 274.453 145.621 274.245C145.446 274.037 145.231 273.867 144.988 273.745C144.745 273.624 144.48 273.554 144.208 273.539C143.937 273.524 143.666 273.565 143.411 273.659C140.478 274.198 133.304 274.232 131.374 276.387C132.554 278.147 134.613 279.606 136.264 280.957C137.546 281.98 140.553 283.357 141.351 284.715Z" fill="#5C5C5C"/>
<path d="M208.133 283.801C209.07 284.013 209.899 284.559 210.465 285.335C210.936 286.16 210.52 287.504 209.565 287.545L220.825 283.712C219.829 285.675 218.193 287.239 216.187 288.145L220.791 286.304C221.439 287.668 222.086 288.984 222.741 290.321C222.67 287.758 223.257 285.22 224.446 282.948C224.759 285.324 225.981 287.485 227.856 288.977C227.532 286.974 226.906 285.031 226.001 283.214C225.005 281.448 223.348 279.934 221.343 279.634C219.543 279.368 217.756 280.084 215.948 280.316C213.309 280.691 210.622 280.077 207.969 280.268C205.8 280.425 203.038 281.4 202.247 283.582C204.129 283.883 205.964 283.03 208.133 283.801Z" fill="#5C5C5C"/>
<path d="M40.4904 224.296C40.4904 224.296 23.345 225.121 23.345 232.876V240.637L38.0966 242.165L40.4904 224.296Z" fill="white" stroke="#676F74" stroke-linecap="round" stroke-linejoin="round"/>
<path d="M44.528 213.2C42.8639 215.512 42.0932 218.329 41.3567 221.077L35.7097 242.055C50.9349 246.169 66.9705 246.235 82.2289 242.246C84.8478 241.564 87.8213 240.378 88.5647 237.772C89.4036 234.867 86.9757 232.126 84.7592 230.066L75.8932 221.827C69.4483 215.873 52.4324 202.213 44.528 213.2Z" fill="white" stroke="#676F74" stroke-linecap="round" stroke-linejoin="round"/>
<path d="M85.9662 225.346C85.023 226.843 84.3576 228.497 84.002 230.23L80.4761 243.242C89.9169 245.799 99.8624 245.841 109.325 243.365C110.955 242.935 112.796 242.205 113.26 240.589C113.778 238.789 112.271 237.084 110.893 235.815L105.383 230.7C101.427 227.004 90.8766 218.533 85.9662 225.346Z" fill="white" stroke="#676F74" stroke-linecap="round" stroke-linejoin="round"/>
<path d="M276.994 218.07C271.886 218.335 266.58 219.645 262.843 223.137C259.105 226.629 257.489 232.719 260.231 237.036C261.806 239.512 264.541 241.073 267.385 241.81C270.229 242.546 273.196 242.601 276.128 242.642L291.596 242.826C294.174 242.86 296.786 242.887 299.275 242.219C301.765 241.551 304.152 240.084 305.352 237.8C307.398 233.912 305.011 232.016 302.467 229.745C299.923 227.474 299.091 226.015 297.079 223.607C292.612 218.322 283.794 217.729 276.994 218.07Z" fill="white" stroke="#676F74" stroke-linecap="round" stroke-linejoin="round"/>
<path d="M244.442 241.919C246.291 244.947 250.533 245.186 254.086 245.07L272.684 244.477C275.378 244.395 278.59 243.986 279.77 241.564C281.086 238.836 278.802 235.774 276.36 233.981C270.672 229.759 263.845 228.027 257.012 229.541C252.149 230.625 239.907 234.492 244.442 241.919Z" fill="white" stroke="#676F74" stroke-linecap="round" stroke-linejoin="round"/>
<path d="M218.69 295.886H215.955L214.244 137.082H220.402L218.69 295.886Z" fill="#263238"/>
<path d="M223.696 136.216C223.355 135.582 222.639 135.677 221.821 134.313C221.002 132.949 219.386 133.508 218.867 133.351C218.349 133.195 218.329 132.976 218.465 132.274C218.601 131.571 218.854 129.287 217.783 129.43C216.712 129.573 216.228 132.008 216.078 132.594C215.573 133.682 215.004 134.739 214.373 135.759C213.88 135.947 213.371 136.091 212.852 136.189C212.266 136.264 211.713 137.471 211.686 138.037C211.686 138.398 212.416 139.449 212.982 140.178C213.282 140.816 213.624 141.433 214.005 142.027C214.005 142.027 214.687 142.709 216.474 142.265C218.261 141.822 221.93 143.575 222.339 143.179C222.748 142.784 223.532 140.649 223.832 139.476C224.125 138.401 224.078 137.262 223.696 136.216Z" fill="white" stroke="#263238" stroke-linecap="round" stroke-linejoin="round"/>
<path d="M211.359 141.031C211.354 140.414 211.524 139.809 211.85 139.285C212.334 138.767 212.968 137.068 213.562 136.741C214.155 136.414 218.09 135.507 220.313 137.13C222.537 138.753 222.264 141.14 222.448 142.286C222.632 143.431 219.775 147.251 219.038 147.387C218.302 147.523 220.941 142.211 218.097 140.608C217.347 140.165 213.787 140.683 211.359 141.031Z" fill="white" stroke="#263238" stroke-linecap="round" stroke-linejoin="round"/>
<path d="M179.237 83.3677C179.237 83.3677 180.355 81.649 180.757 83.886C181.16 86.123 180.191 88.5236 178.902 89.3829C177.613 90.2422 177.047 89.3829 177.047 88.5236C177.047 87.6643 179.237 83.3677 179.237 83.3677Z" fill="white" stroke="#263238" stroke-linecap="round" stroke-linejoin="round"/>
<path d="M157.542 84.227C157.172 84.0907 156.764 84.1001 156.401 84.2533C156.037 84.4065 155.746 84.6921 155.585 85.0522C155.49 85.2807 155.462 85.5313 155.503 85.7751C155.503 87.8211 158.47 90.7674 159.765 90.0786C161.061 89.3897 157.542 84.227 157.542 84.227Z" fill="white" stroke="#263238" stroke-linecap="round" stroke-linejoin="round"/>
<path d="M168.304 64.108C168.304 64.108 165.412 68.5819 162.384 69.7891C158.49 71.3372 155.339 75.9884 155.564 79.7667C155.789 83.545 161.702 95.9438 162.603 96.2916C163.503 96.6394 175.206 95.7733 175.561 95.2618C175.915 94.7502 177.607 89.5807 179.08 84.5885C180.553 79.5962 180.56 77.0183 180.56 77.0183C181.096 75.4121 181.352 73.7257 181.317 72.0328C181.208 69.9868 177.532 66.8496 177.532 66.8496C177.532 66.8496 174.347 63.3851 173.003 64.1216C171.694 64.924 170.509 65.9118 169.484 67.0542L168.304 64.108Z" fill="#263238" stroke="#263238" stroke-linecap="round" stroke-linejoin="round"/>
<path d="M144.161 175.765C144.161 175.765 146.671 179.291 146.807 180.655C146.944 182.019 146.937 184.583 147.067 185.429C147.111 185.596 147.118 185.771 147.088 185.941C147.057 186.111 146.989 186.272 146.889 186.413C146.788 186.554 146.658 186.671 146.507 186.755C146.356 186.84 146.189 186.89 146.016 186.902C145.805 186.886 145.601 186.822 145.418 186.716C145.235 186.609 145.078 186.463 144.959 186.288C145.038 186.979 145.17 187.664 145.355 188.334C145.614 189.194 147.067 189.93 146.937 190.783C146.807 191.635 145.355 192.01 143.37 192.01C142.204 192.024 141.06 191.698 140.076 191.072C139.093 190.445 138.313 189.546 137.832 188.484C136.653 185.913 135.466 178.561 135.466 177.197C135.466 175.833 142.845 174.783 144.161 175.765Z" fill="white" stroke="#263238" stroke-linecap="round" stroke-linejoin="round"/>
<path d="M141.399 180.294C141.399 180.294 141.924 181.392 140.867 183.11C140.159 184.117 139.624 185.235 139.285 186.418C139.579 187.28 139.977 188.102 140.472 188.866C141.004 189.848 142.749 189.732 142.845 190.592C142.896 190.825 142.899 191.067 142.853 191.301C142.807 191.536 142.714 191.759 142.579 191.956" stroke="#515B60" stroke-linecap="round" stroke-linejoin="round"/>
<path d="M143.063 185.504C143.175 186.469 143.404 187.417 143.745 188.327C144.277 189.555 147.046 190.285 146.023 191.635" stroke="#515B60" stroke-linecap="round" stroke-linejoin="round"/>
<path d="M141.399 186.05C141.532 186.849 141.761 187.63 142.081 188.375C142.477 189.057 145.116 189.842 144.584 191.785" stroke="#515B60" stroke-linecap="round" stroke-linejoin="round"/>
<path d="M144.959 186.295C144.959 186.295 144.693 184.331 144.564 183.567C144.471 182.864 144.425 182.155 144.427 181.446" stroke="#515B60" stroke-linecap="round" stroke-linejoin="round"/>
<path d="M188.232 100.609C184.711 98.0673 180.658 96.3622 176.379 95.6232C168.966 94.2592 159.145 96.4825 155.237 98.89C154.099 99.609 153.129 100.565 152.393 101.692C151.658 102.82 151.174 104.092 150.974 105.424L188.232 100.609Z" fill="white" stroke="#263238" stroke-linecap="round" stroke-linejoin="round"/>
<path d="M220.716 142.538C221.03 147.496 210.063 152.911 204.873 146.664C201.04 142.054 195.1 122.562 195.1 122.562C195.1 122.562 193.688 152.679 193.688 154.575C193.585 156.194 193.299 157.795 192.836 159.349C192.836 159.349 192.542 161.45 191.247 162.302C189.951 163.155 189.412 165.712 173.46 166.913C163.951 167.684 154.38 166.928 145.109 164.676C144.38 164.498 144.004 160.543 144.004 160.543L143.452 172.069C142.779 172.762 141.955 173.292 141.045 173.617C139.565 174.135 135.295 173.787 134.375 173.269C133.454 172.751 131.572 158.824 131.776 156.417C131.981 154.009 133.529 120.646 136.823 112.83C139.503 106.481 143.97 103.603 150.272 101.877C156.574 100.152 169.327 100.445 170.05 100.274C170.05 100.274 182.394 100.956 188.341 99.9403C188.341 99.9403 199.471 99.4902 202.881 105.846C205.323 110.361 208.215 119.064 209.701 123.701C210.394 125.888 211.231 128.028 212.204 130.105L214.639 135.302C217.674 136.284 220.532 139.626 220.716 142.538Z" fill="#20B08E" stroke="#263238" stroke-linecap="round" stroke-linejoin="round"/>
<path d="M164.001 111.93C164.001 111.93 166.51 121.103 173.876 124.847" stroke="#515B60" stroke-linecap="round" stroke-linejoin="round"/>
<path d="M174.844 128.898C175.404 129.164 175.977 129.423 176.556 129.675" stroke="#515B60" stroke-linecap="round" stroke-linejoin="round"/>
<path d="M164.001 121.437C166.471 123.764 169.206 125.792 172.151 127.479" stroke="#515B60" stroke-linecap="round" stroke-linejoin="round"/>
<path d="M197.521 158.299C169.17 170.166 143.793 160.536 143.793 160.536C143.793 160.536 144.161 164.492 144.898 164.669C154.162 166.919 163.726 167.674 173.228 166.906C189.173 165.699 195.83 163.496 197.098 162.602C198.367 161.709 198.217 159.192 198.217 159.192C198.223 158.855 198.248 158.518 198.292 158.183L197.521 158.299Z" fill="white" stroke="#263238" stroke-linecap="round" stroke-linejoin="round"/>
<path d="M132.117 171.543C132.117 171.543 136.38 173.262 139.899 172.225C143.418 171.189 144.345 170.179 144.898 170.329C145.45 170.48 145.464 174.626 144.898 175.833C144.332 177.04 143.043 177.879 139.155 178.248C135.268 178.616 133.229 176.836 132.861 175.833C132.516 174.422 132.268 172.989 132.117 171.543Z" fill="white" stroke="#263238" stroke-linecap="round" stroke-linejoin="round"/>
<path d="M143.411 118.136C143.46 127.096 144.415 136.028 146.262 144.795" stroke="#515B60" stroke-linecap="round" stroke-linejoin="round"/>
<path d="M155.339 73.465C153.6 77.2092 153.58 79.603 155.107 83.4154C157.031 88.1894 161.504 89.7239 164.226 89.9762C169.238 90.4536 174.121 90.2081 178.357 87.6506C182.592 85.0931 184.426 79.4189 183.601 74.7404C182.919 70.7166 180.341 65.1924 176.304 63.7329C166.981 60.3365 159.165 65.2128 155.339 73.465Z" fill="#BFBFBF" stroke="#263238" stroke-linecap="round" stroke-linejoin="round"/>
<path d="M157.051 69.9186C155.141 73.2741 154.814 75.5656 155.687 79.4121C156.093 81.3515 157.104 83.112 158.575 84.4395C160.046 85.767 161.9 86.5929 163.871 86.7981C168.877 87.3369 173.753 87.0027 177.695 83.9133C181.412 81.0011 182.224 75.1496 180.846 70.8325C179.762 67.4225 177.177 63.1668 173.965 62.1234C166.885 59.8182 160.802 63.3101 157.051 69.9186Z" fill="#999999" stroke="#263238" stroke-linecap="round" stroke-linejoin="round"/>
<path d="M168.898 70.8393C170.092 70.8393 171.059 69.9874 171.059 68.9366C171.059 67.8857 170.092 67.0338 168.898 67.0338C167.704 67.0338 166.736 67.8857 166.736 68.9366C166.736 69.9874 167.704 70.8393 168.898 70.8393Z" fill="#263238" stroke="#263238" stroke-linecap="round" stroke-linejoin="round"/>
<path d="M163.346 72.1556C160.782 76.193 160.864 81.4035 161.43 86.3958" stroke="#263238" stroke-linecap="round" stroke-linejoin="round"/>
<path d="M169.961 73.0422C170.679 77.5924 170.887 82.2086 170.582 86.805" stroke="#263238" stroke-linecap="round" stroke-linejoin="round"/>
<path d="M176.024 71.2554C178.156 74.6125 179.026 78.6173 178.48 82.5561" stroke="#263238" stroke-linecap="round" stroke-linejoin="round"/>
<path d="M214.653 138.842C214.844 139.87 214.777 140.93 214.458 141.926C214.139 142.922 213.578 143.824 212.825 144.55" stroke="#515B60" stroke-linecap="round" stroke-linejoin="round"/>
<path d="M204.232 117.386C204.157 117.884 204.061 118.382 203.952 118.873" stroke="#515B60" stroke-linecap="round" stroke-linejoin="round"/>
<path d="M203.345 106.433C204.361 109.526 204.721 112.796 204.402 116.035" stroke="#515B60" stroke-linecap="round" stroke-linejoin="round"/>
<path d="M146.855 166.81C146.855 166.81 143.595 179.857 144.127 185.368C144.659 190.878 143.711 207.28 145.778 219.87C148.71 237.711 147.878 254.707 148.199 263.347C148.36 266.334 147.984 269.326 147.087 272.179C146.405 274.178 146.221 277.288 148.622 281.216C148.663 281.898 150.17 281.686 150.374 282.362C150.374 282.362 153.157 284.087 154.828 284.251C156.499 284.414 154.398 286.126 163.012 281.339C164.935 280.268 165.985 274.089 165.194 271.559C163.973 267.665 165.876 261.602 165.433 242.758C165.228 234.158 164.662 237.397 166.974 224.16C170.596 203.441 169.845 189.112 169.845 189.112C170.123 190.692 170.321 192.285 170.439 193.886C170.718 202.288 172.737 227.079 173.167 248.132C173.487 265.38 175.363 285.928 175.363 287.306C175.363 288.684 175.022 291.678 175.022 292.885C175.022 294.092 174.913 296.295 175.465 297.127C175.918 297.948 176.29 298.812 176.577 299.705C176.577 299.705 183.247 300.735 185.095 300.735C186.943 300.735 189.03 299.289 189.03 299.289L189.364 297.925C190.162 294.692 191.574 293.997 191.922 290.696C194.091 270.065 195.496 262.229 195.625 201.511C195.625 199.117 193.409 168.365 193.409 168.365L193.034 164.232C193.034 164.232 173.583 166.647 164.321 165.44C155.06 164.232 147.455 163.885 147.455 163.885L146.855 166.81Z" fill="white" stroke="#263238" stroke-linecap="round" stroke-linejoin="round"/>
<path d="M162.896 299.664C162.896 301.076 159.977 301.662 157.058 301.771C155.231 301.796 153.433 301.309 151.868 300.366C151.868 300.366 149.379 300.557 148.506 299.562C147.633 298.566 148.083 296.247 148.628 295.47C149.174 294.692 151.281 292.81 152.038 291.378C152.523 290.45 150.415 286.999 150.19 280.848C150.75 280.304 151.465 279.949 152.236 279.831L152.625 283.842C152.625 283.842 159.82 282.655 161.559 284.053C161.791 284.244 161.989 284.264 162.152 284.155C161.649 286.286 161.686 288.508 162.261 290.621C164.055 296.67 162.896 299.084 162.896 299.664Z" fill="#757575" stroke="#263238" stroke-linecap="round" stroke-linejoin="round"/>
<path d="M162.132 284.148C161.968 284.258 161.771 284.237 161.539 284.046C159.8 282.648 152.605 283.835 152.605 283.835L152.216 279.825C154.455 279.339 156.755 279.203 159.036 279.422C160.598 279.586 162.446 280.541 162.753 281.284C162.862 281.489 162.446 282.58 162.132 284.148Z" fill="#263238"/>
<path d="M151.881 300.339C153.447 301.281 155.244 301.768 157.071 301.744C159.99 301.635 162.909 301.062 162.909 299.637V298.525C161.39 299.138 159.773 299.477 158.135 299.528C154.248 299.732 152.516 298.627 151.759 298.532C151.145 298.45 149.467 298.825 148.042 298.225C148.064 298.698 148.23 299.152 148.519 299.528C149.358 300.53 151.881 300.339 151.881 300.339Z" fill="#BFBFBF" stroke="#263238" stroke-linecap="round" stroke-linejoin="round"/>
<path d="M151.868 295.511L152.298 300.339" stroke="#515B60" stroke-linecap="round" stroke-linejoin="round"/>
<path d="M175.274 316.864C175.274 318.426 178.5 319.081 181.733 319.203C183.756 319.228 185.747 318.69 187.482 317.648C187.482 317.648 190.21 317.853 191.199 316.755C192.188 315.657 191.676 313.079 191.069 312.199C190.462 311.319 188.13 309.26 187.284 307.684C186.759 306.654 189.091 302.835 189.33 296.022C188.713 295.429 187.931 295.036 187.086 294.897L186.657 299.343C186.657 299.343 178.691 298.027 176.768 299.575C176.508 299.787 176.29 299.807 176.086 299.684C176.649 302.043 176.609 304.506 175.97 306.845C173.999 313.584 175.274 316.223 175.274 316.864Z" fill="#757575" stroke="#263238" stroke-linecap="round" stroke-linejoin="round"/>
<path d="M176.127 299.684C176.311 299.807 176.529 299.787 176.809 299.575C178.732 298.027 186.698 299.343 186.698 299.343L187.127 294.897C184.64 294.358 182.084 294.209 179.55 294.453C177.825 294.638 175.786 295.688 175.458 296.499C175.322 296.745 175.786 297.945 176.127 299.684Z" fill="#263238"/>
<path d="M191.213 316.721C191.527 316.299 191.71 315.794 191.738 315.268C190.155 315.95 188.328 315.52 187.646 315.609C186.814 315.718 184.918 316.973 180.587 316.721C178.771 316.66 176.98 316.282 175.295 315.602V316.83C175.295 318.385 178.527 319.053 181.76 319.162C183.782 319.195 185.773 318.656 187.502 317.607C187.502 317.607 190.278 317.812 191.213 316.721Z" fill="#BFBFBF" stroke="#263238" stroke-linecap="round" stroke-linejoin="round"/>
<path d="M187.018 317.607L187.495 312.267" stroke="#515B60" stroke-linecap="round" stroke-linejoin="round"/>
<path d="M150.388 229.357C151.887 235.438 155.287 240.883 160.093 244.899" stroke="#515B60" stroke-linecap="round" stroke-linejoin="round"/>
<path d="M149.638 223.744C149.666 224.905 149.773 226.062 149.958 227.208" stroke="#515B60" stroke-linecap="round" stroke-linejoin="round"/>
<path d="M154.173 231.498C155.107 232.659 156.274 233.611 157.599 234.291C158.925 234.971 160.379 235.365 161.866 235.447" stroke="#515B60" stroke-linecap="round" stroke-linejoin="round"/>
<path d="M176.931 255.989C181.744 254.861 185.969 251.992 188.791 247.934" stroke="#515B60" stroke-linecap="round" stroke-linejoin="round"/>
<path d="M178.432 249.128C181.185 248.936 183.772 247.745 185.709 245.779" stroke="#515B60" stroke-linecap="round" stroke-linejoin="round"/>
<path d="M150.947 130.289L145.109 102.089L153.212 100.472L155.81 129.641L150.947 130.289Z" fill="#263238"/>
<path d="M188.641 128.993L194.479 100.793L186.377 99.1764L183.785 128.346L188.641 128.993Z" fill="#263238"/>
<path d="M163.741 124.779V141.542H163.673L161.382 145.239L159.097 141.542H159.022V129.614H159.015V124.779H163.741Z" fill="#263238" stroke="#263238" stroke-linecap="round" stroke-linejoin="round"/>
<path d="M180.785 98.8491H176.058V105.758H180.785V98.8491Z" fill="#263238" stroke="#263238" stroke-linecap="round" stroke-linejoin="round"/>
<path d="M180.785 109.222H176.058V121.321H180.785V109.222Z" fill="#263238" stroke="#263238" stroke-linecap="round" stroke-linejoin="round"/>
<path d="M191.492 112.591L188.71 120.775C187.687 124.656 184.618 127.711 180.792 129.71V141.522V124.806H183.315V121.348H180.792V109.222H183.315V105.758H180.792V98.8491H176.065V105.758H173.542V109.222H176.065V121.321H173.542V124.806H176.065V131.626L175.295 131.817L174.572 131.974C174.535 131.971 174.499 131.971 174.463 131.974L174.142 132.035L173.678 132.117H173.508L173.085 132.185L172.608 132.247H172.546L172.069 132.294H171.96L171.489 132.342H171.435H170.95C170.793 132.342 170.637 132.342 170.466 132.342H169.907C167.831 132.343 165.765 132.054 163.769 131.483V141.481V124.806H166.292V121.348H163.769V109.222H166.292V105.758H163.769V98.8491H159.043V105.758H156.519V109.222H159.043V121.321H156.519V124.806H159.043V129.641C155.244 127.554 152.223 124.41 151.206 120.537L148.328 112.619L156.178 98.774H183.458L191.492 112.591Z" fill="white" stroke="#263238" stroke-linecap="round" stroke-linejoin="round"/>
<path d="M185.074 145.239V145.375H155.312L170.193 152.918L185.074 145.375V163.639H154.78V145.239H185.074Z" fill="white" stroke="#263238" stroke-linecap="round" stroke-linejoin="round"/>
<path d="M201.872 182.776L187.345 181.037C176.355 179.71 165.245 179.71 154.255 181.037L140.008 182.776L139.612 180.73C138.658 175.77 138.793 170.662 140.008 165.76L162.446 167.888C168.016 168.417 173.625 168.417 179.196 167.888L201.872 165.781C203.162 171.266 203.188 176.972 201.947 182.469L201.872 182.776Z" fill="#263238"/>
<path d="M174.087 164.86H168.134V182.435H174.087V164.86Z" fill="white" stroke="#263238" stroke-linecap="round" stroke-linejoin="round"/>
<path d="M191.492 112.591V163.223C191.492 166.347 188.764 168.884 185.415 168.884H154.398C151.029 168.884 148.301 166.347 148.301 163.223V112.591L151.179 120.509C152.223 124.383 155.217 127.527 159.015 129.614V141.542H159.083L161.375 145.239H154.814V163.653H185.109V145.266H178.466L180.757 141.57H180.826V129.73C184.672 127.732 187.721 124.676 188.744 120.796L191.492 112.591Z" fill="#757575" stroke="#263238" stroke-linecap="round" stroke-linejoin="round"/>
<path d="M159.022 129.614H159.015V141.549H159.022V129.614Z" stroke="#515B60" stroke-linecap="round" stroke-linejoin="round"/>
<path d="M161.382 145.239L159.083 141.542H159.097L161.382 145.239Z" stroke="#515B60" stroke-linecap="round" stroke-linejoin="round"/>
<path d="M178.418 145.266H161.368L163.66 141.57H163.735V131.544C165.731 132.115 167.797 132.404 169.873 132.403H170.5C170.671 132.403 170.828 132.403 170.984 132.403H171.469H171.523L171.994 132.356H172.103L172.58 132.308H172.635L173.112 132.247L173.535 132.178H173.706L174.169 132.097L174.49 132.035C174.526 132.032 174.563 132.032 174.599 132.035L175.322 131.878L176.093 131.687V141.658H176.161L178.418 145.266Z" fill="#757575" stroke="#263238" stroke-linecap="round" stroke-linejoin="round"/>
<path d="M176.065 131.558V141.542H176.058V131.571L176.065 131.558Z" stroke="#515B60" stroke-linecap="round" stroke-linejoin="round"/>
<path d="M178.418 145.239L176.127 141.542H176.134L178.418 145.239Z" stroke="#515B60" stroke-linecap="round" stroke-linejoin="round"/>
<path d="M185.074 145.375L176.843 151.015C174.885 152.357 172.567 153.075 170.193 153.075C167.82 153.075 165.502 152.357 163.544 151.015L155.312 145.375H185.074Z" fill="white" stroke="#263238" stroke-linecap="round" stroke-linejoin="round"/>
<path d="M200.467 151.806V163.639H191.492V145.266H193.402C197.303 145.266 200.467 148.178 200.467 151.806Z" fill="white" stroke="#263238" stroke-linecap="round" stroke-linejoin="round"/>
<path d="M148.301 145.266V163.68H139.333V151.806C139.333 148.178 142.497 145.239 146.391 145.239L148.301 145.266Z" fill="white" stroke="#263238" stroke-linecap="round" stroke-linejoin="round"/>
<path d="M163.741 109.222H159.015V121.321H163.741V109.222Z" fill="#263238" stroke="#263238" stroke-linecap="round" stroke-linejoin="round"/>
<path d="M159.022 129.614H159.015V141.549H159.022V129.614Z" stroke="#515B60" stroke-linecap="round" stroke-linejoin="round"/>
<path d="M161.382 145.239L159.083 141.542H159.097L161.382 145.239Z" stroke="#515B60" stroke-linecap="round" stroke-linejoin="round"/>
<path d="M163.741 98.8491H159.015V105.758H163.741V98.8491Z" fill="#263238" stroke="#263238" stroke-linecap="round" stroke-linejoin="round"/>
<path d="M180.785 124.779V141.542H180.716L178.418 145.239L176.133 141.542H176.065V131.558L176.058 131.571V124.779H180.785Z" fill="#263238" stroke="#263238" stroke-linecap="round" stroke-linejoin="round"/>
<path d="M176.065 131.558V141.542H176.058V131.571L176.065 131.558Z" stroke="#515B60" stroke-linecap="round" stroke-linejoin="round"/>
<path d="M178.418 145.239L176.127 141.542H176.134L178.418 145.239Z" stroke="#515B60" stroke-linecap="round" stroke-linejoin="round"/>
<path d="M166.265 105.758H156.492V109.222H166.265V105.758Z" fill="#20B08E" stroke="#263238" stroke-linecap="round" stroke-linejoin="round"/>
<path d="M183.308 105.758H173.535V109.222H183.308V105.758Z" fill="#20B08E" stroke="#263238" stroke-linecap="round" stroke-linejoin="round"/>
<path d="M166.265 121.321H156.492V124.786H166.265V121.321Z" fill="#20B08E" stroke="#263238" stroke-linecap="round" stroke-linejoin="round"/>
<path d="M183.308 121.321H173.535V124.786H183.308V121.321Z" fill="#20B08E" stroke="#263238" stroke-linecap="round" stroke-linejoin="round"/>
<path d="M169.893 191.737C172.275 193.567 175.088 194.753 178.061 195.18C181.034 195.608 184.067 195.263 186.868 194.179" stroke="#515B60" stroke-linecap="round" stroke-linejoin="round"/>
<path d="M170.384 194.909C167.793 201.487 163.888 207.467 158.906 212.484" stroke="#515B60" stroke-linecap="round" stroke-linejoin="round"/>
<path d="M169.941 190.373L169.259 192.808C168.318 196.28 167.629 199.001 166.06 202.24L163.148 207.751L170.036 196.696L169.941 190.373Z" fill="#263238" stroke="#263238" stroke-linecap="round" stroke-linejoin="round"/>
<path d="M169.893 191.737L171.257 205.643L171.939 203.038C172.416 199.812 174.667 197.282 177.177 195.195C175.185 194.764 173.291 193.967 171.591 192.842C171.182 192.535 170.582 192.174 169.893 191.737Z" fill="#263238" stroke="#263238" stroke-linecap="round" stroke-linejoin="round"/>
<path d="M144.584 182.128C144.877 187.584 147.619 191.11 151.288 192.522" stroke="#515B60" stroke-linecap="round" stroke-linejoin="round"/>
<path d="M194.084 181.964C193.886 187.42 192.038 190.946 189.548 192.358" stroke="#515B60" stroke-linecap="round" stroke-linejoin="round"/>
<path d="M141.174 139.749C142.17 141.696 142.967 143.739 143.554 145.846" stroke="#515B60" stroke-linecap="round" stroke-linejoin="round"/>
<path d="M138.992 136.12C139.292 136.564 139.578 137.007 139.858 137.484" stroke="#515B60" stroke-linecap="round" stroke-linejoin="round"/>
<path d="M132.519 147.789C132.4 150.962 133.172 154.105 134.75 156.86" stroke="#515B60" stroke-linecap="round" stroke-linejoin="round"/>
<path d="M193.32 116.445L195.918 125.195" stroke="#515B60" stroke-linecap="round" stroke-linejoin="round"/>
</svg>
