<svg width="24" height="24" viewBox="0 0 24 24" fill="none" xmlns="http://www.w3.org/2000/svg">
<path d="M11.9997 8.75C10.2048 8.75 8.74969 10.2051 8.74969 12C8.74969 13.7949 10.2048 15.25 11.9997 15.25C13.7946 15.25 15.2497 13.7949 15.2497 12C15.2497 10.2051 13.7946 8.75 11.9997 8.75Z" fill="#20B08E"/>
<path fill-rule="evenodd" clip-rule="evenodd" d="M6.76923 3.08147C10.2174 2.69609 13.7821 2.69609 17.2302 3.08147C19.1286 3.29364 20.6598 4.78942 20.8826 6.69447C21.2949 10.2195 21.2949 13.7805 20.8826 17.3055C20.6598 19.2106 19.1286 20.7064 17.2302 20.9185C13.7821 21.3039 10.2174 21.3039 6.76923 20.9185C4.87083 20.7064 3.33964 19.2106 3.11683 17.3055C2.70455 13.7805 2.70455 10.2195 3.11683 6.69447C3.33964 4.78942 4.87083 3.29364 6.76923 3.08147ZM16.9997 6C16.4474 6 15.9997 6.44772 15.9997 7C15.9997 7.55228 16.4474 8 16.9997 8C17.552 8 17.9997 7.55228 17.9997 7C17.9997 6.44772 17.552 6 16.9997 6ZM7.24969 12C7.24969 9.37665 9.37634 7.25 11.9997 7.25C14.623 7.25 16.7497 9.37665 16.7497 12C16.7497 14.6234 14.623 16.75 11.9997 16.75C9.37634 16.75 7.24969 14.6234 7.24969 12Z" fill="#20B08E"/>
</svg>
