<svg width="24" height="24" viewBox="0 0 24 24" fill="none" xmlns="http://www.w3.org/2000/svg">
<rect opacity="0.24" width="24" height="24" rx="4" fill="#C0E3DB"/>
<path d="M10.1549 8.59633C9.75426 8.59633 9.42951 8.27158 9.42951 7.87097C9.42951 7.47037 9.75426 7.14562 10.1549 7.14561L15.6259 7.14562C16.0265 7.14562 16.3512 7.47037 16.3512 7.87097L16.3512 13.342C16.3512 13.7426 16.0265 14.0673 15.6259 14.0673C15.2253 14.0673 14.9005 13.7426 14.9005 13.342L14.9005 9.62214L8.27421 16.2484C7.99094 16.5317 7.53167 16.5317 7.2484 16.2484C6.96513 15.9652 6.96513 15.5059 7.2484 15.2226L13.8747 8.59633L10.1549 8.59633Z" fill="#20B08E"/>
</svg>
