<svg width="24" height="24" viewBox="0 0 24 24" fill="none" xmlns="http://www.w3.org/2000/svg">
<path d="M5.00004 9.8605C6.91644 14.0344 10.3264 17.3529 14.566 19.1519L15.2456 19.4547C16.8004 20.1474 18.6282 19.6211 19.5765 18.2076L20.4646 16.8839C20.7533 16.4536 20.6654 15.8739 20.262 15.5485L17.2502 13.1187C16.8078 12.7618 16.1573 12.8449 15.8189 13.3016L14.8871 14.5589C12.4963 13.3795 10.5553 11.4385 9.37595 9.04765L10.6332 8.11593C11.0899 7.77751 11.173 7.12699 10.8161 6.68461L8.38623 3.67267C8.06088 3.26939 7.48138 3.18142 7.05101 3.46999L5.71817 4.36368C4.29582 5.31739 3.77244 7.16024 4.48118 8.71919L4.99926 9.85881L5.00004 9.8605Z" fill="#20B08E"/>
</svg>
