<svg width="16" height="19" viewBox="0 0 16 19" fill="none" xmlns="http://www.w3.org/2000/svg">
<path d="M9.79601 1.13609C8.81359 0.121469 7.18635 0.121467 6.20393 1.13608L1.40546 6.09182C1.12987 6.37643 0.944687 6.73624 0.873231 7.12592C0.290471 10.3039 0.247455 13.5573 0.745988 16.7496L0.922491 17.8798C0.97824 18.2368 1.2857 18.5 1.64701 18.5H4.99997C5.27611 18.5 5.49997 18.2761 5.49997 18V11H10.5V18C10.5 18.2761 10.7238 18.5 11 18.5H14.3529C14.7142 18.5 15.0217 18.2368 15.0774 17.8798L15.2539 16.7496C15.7524 13.5573 15.7094 10.3039 15.1267 7.12591C15.0552 6.73624 14.87 6.37643 14.5944 6.09182L9.79601 1.13609Z" fill="#20B08E"/>
</svg>
