<svg width="18" height="18" viewBox="0 0 18 18" fill="none" xmlns="http://www.w3.org/2000/svg">
<path fill-rule="evenodd" clip-rule="evenodd" d="M0.25 9C0.25 4.16751 4.16751 0.25 9 0.25C13.8325 0.25 17.75 4.16751 17.75 9C17.75 13.8325 13.8325 17.75 9 17.75C4.16751 17.75 0.25 13.8325 0.25 9ZM7.84982 6.30875C6.91625 7.07679 6.29256 8.15706 6.0942 9.34957L5.43749 13.2977C5.28588 14.2091 6.3457 14.821 7.05926 14.234L10.15 11.6912C11.0836 10.9232 11.7073 9.84291 11.9057 8.6504L12.5624 4.70231C12.714 3.79083 11.6542 3.17894 10.9406 3.76598L7.84982 6.30875Z" fill="#20B08E"/>
<path d="M7.5 9C7.5 8.17157 8.17157 7.5 9 7.5C9.82843 7.5 10.5 8.17157 10.5 9C10.5 9.82843 9.82843 10.5 9 10.5C8.17157 10.5 7.5 9.82843 7.5 9Z" fill="#20B08E"/>
</svg>
