<svg width="18" height="18" viewBox="0 0 18 18" fill="none" xmlns="http://www.w3.org/2000/svg">
<path fill-rule="evenodd" clip-rule="evenodd" d="M9 1.75C4.99594 1.75 1.75 4.99594 1.75 9C1.75 13.0041 4.99594 16.25 9 16.25C13.0041 16.25 16.25 13.0041 16.25 9C16.25 4.99594 13.0041 1.75 9 1.75ZM0.25 9C0.25 4.16751 4.16751 0.25 9 0.25C13.8325 0.25 17.75 4.16751 17.75 9C17.75 13.8325 13.8325 17.75 9 17.75C4.16751 17.75 0.25 13.8325 0.25 9Z" fill="#838383"/>
<path fill-rule="evenodd" clip-rule="evenodd" d="M7.84979 6.30875C6.91622 7.07679 6.29253 8.15705 6.09417 9.34957L5.65623 11.9824C5.42881 13.3496 7.01855 14.2675 8.08889 13.3869L10.15 11.6912C11.0836 10.9232 11.7073 9.84291 11.9056 8.65039L12.3436 6.01756C12.571 4.65035 10.9813 3.73251 9.91092 4.61307L7.84979 6.30875ZM9 7.5C8.17157 7.5 7.5 8.17157 7.5 9C7.5 9.82843 8.17157 10.5 9 10.5C9.82843 10.5 10.5 9.82843 10.5 9C10.5 8.17157 9.82843 7.5 9 7.5Z" fill="#838383"/>
</svg>
