<svg width="18" height="19" viewBox="0 0 18 19" fill="none" xmlns="http://www.w3.org/2000/svg">
<path fill-rule="evenodd" clip-rule="evenodd" d="M10.5579 2.53423C9.68732 1.69887 8.31281 1.69887 7.44224 2.53423L2.8158 6.97357C2.70245 7.08234 2.6262 7.22402 2.59787 7.37854C2.04373 10.4004 2.00283 13.494 2.47687 16.5295L2.58939 17.25H5.56585V11.0387C5.56585 10.6244 5.90164 10.2887 6.31585 10.2887H11.6843C12.0985 10.2887 12.4343 10.6244 12.4343 11.0387V17.25H15.4107L15.5232 16.5295C15.9973 13.494 15.9564 10.4004 15.4023 7.37854C15.3739 7.22402 15.2977 7.08234 15.1843 6.97357L10.5579 2.53423ZM6.40369 1.45191C7.85464 0.0596485 10.1455 0.0596485 11.5964 1.45191L16.2229 5.89125C16.5634 6.21804 16.7925 6.64373 16.8777 7.10799C17.4622 10.2956 17.5053 13.559 17.0053 16.7609L16.8245 17.9184C16.7498 18.3971 16.3375 18.75 15.853 18.75H11.6843C11.2701 18.75 10.9343 18.4142 10.9343 18V11.7887H7.06585V18C7.06585 18.4142 6.73007 18.75 6.31585 18.75H2.14712C1.66264 18.75 1.25035 18.3971 1.1756 17.9184L0.994837 16.7609C0.494789 13.559 0.537936 10.2956 1.12247 7.10799C1.2076 6.64373 1.43668 6.21804 1.77725 5.89125L6.40369 1.45191Z" fill="#838383"/>
</svg>
