<svg width="16" height="19" viewBox="0 0 16 19" fill="none" xmlns="http://www.w3.org/2000/svg">
<path fill-rule="evenodd" clip-rule="evenodd" d="M4.25 7C4.25 4.92893 5.92893 3.25 8 3.25C10.0711 3.25 11.75 4.92893 11.75 7C11.75 9.07107 10.0711 10.75 8 10.75C5.92893 10.75 4.25 9.07107 4.25 7ZM8 4.75C6.75736 4.75 5.75 5.75736 5.75 7C5.75 8.24264 6.75736 9.25 8 9.25C9.24264 9.25 10.25 8.24264 10.25 7C10.25 5.75736 9.24264 4.75 8 4.75Z" fill="#838383"/>
<path fill-rule="evenodd" clip-rule="evenodd" d="M1.45641 6.12724C1.73017 2.80603 4.50555 0.25 7.83803 0.25H8.16198C11.4945 0.25 14.2698 2.80603 14.5436 6.12724C14.6903 7.90751 14.1404 9.67525 13.0097 11.0581L9.41489 15.4545C8.68361 16.3488 7.31639 16.3488 6.58512 15.4545L2.99032 11.0581C1.85958 9.67525 1.30967 7.90751 1.45641 6.12724ZM7.83803 1.75C5.28621 1.75 3.16097 3.70726 2.95134 6.25046C2.83652 7.64343 3.2668 9.02659 4.15154 10.1086L7.74634 14.505C7.87745 14.6653 8.12256 14.6653 8.25367 14.505L11.8485 10.1086C12.7332 9.02659 13.1635 7.64343 13.0487 6.25046C12.839 3.70726 10.7138 1.75 8.16198 1.75H7.83803Z" fill="#838383"/>
<path d="M3.67082 14.3354C3.85606 13.9649 3.70589 13.5144 3.33541 13.3292C2.96493 13.1439 2.51442 13.2941 2.32918 13.6646L0.32918 17.6646C0.212935 17.8971 0.225358 18.1732 0.362013 18.3943C0.498668 18.6154 0.740068 18.75 1 18.75H15C15.2599 18.75 15.5013 18.6154 15.638 18.3943C15.7746 18.1732 15.7871 17.8971 15.6708 17.6646L13.6708 13.6646C13.4856 13.2941 13.0351 13.1439 12.6646 13.3292C12.2941 13.5144 12.1439 13.9649 12.3292 14.3354L13.7865 17.25H2.21353L3.67082 14.3354Z" fill="#838383"/>
</svg>
