<svg width="20" height="24" viewBox="0 0 20 24" fill="none" xmlns="http://www.w3.org/2000/svg">
<path fill-rule="evenodd" clip-rule="evenodd" d="M1.0987 8.99429C1.47608 4.36373 5.30201 0.80001 9.8959 0.80001H10.3703C14.9641 0.80001 18.7901 4.36373 19.1674 8.99429C19.3706 11.4874 18.6092 13.963 17.0435 15.8996L11.7798 22.4105C10.9287 23.4632 9.33746 23.4632 8.48638 22.4105L3.22261 15.8996C1.65694 13.963 0.895508 11.4874 1.0987 8.99429Z" fill="#F6F6F6"/>
<path fill-rule="evenodd" clip-rule="evenodd" d="M0.301535 8.9293C0.712151 3.891 4.87806 0 9.89609 0H10.3704C15.3885 0 19.5544 3.891 19.965 8.9293C20.1848 11.6262 19.3613 14.3054 17.6659 16.4026L12.4021 22.9134C11.2308 24.3622 9.03574 24.3622 7.86446 22.9134L2.60068 16.4026C0.905196 14.3054 0.081739 11.6262 0.301535 8.9293ZM9.89609 1.6C5.72634 1.6 2.2404 4.83643 1.89625 9.05926C1.70967 11.3486 2.40908 13.6206 3.84492 15.3967L9.1087 21.9075C9.63958 22.5642 10.627 22.5642 11.1578 21.9075L16.4216 15.3966C17.8575 13.6206 18.5569 11.3486 18.3703 9.05926C18.0261 4.83642 14.5402 1.6 10.3704 1.6H9.89609Z" fill="#E1BC38"/>
<path d="M16.5335 9.86669C16.5335 13.4013 13.6681 16.2667 10.1334 16.2667C6.59879 16.2667 3.7334 13.4013 3.7334 9.86669C3.7334 6.33205 6.59879 3.46666 10.1334 3.46666C13.6681 3.46666 16.5335 6.33205 16.5335 9.86669Z" fill="#E1BC38"/>
<path d="M10.9199 11.8178H8.4401C8.39768 11.8178 8.36328 11.8679 8.36328 11.9298C8.36328 11.9916 8.39768 12.0417 8.4401 12.0417H10.9199C10.9624 12.0417 10.9968 11.9916 10.9968 11.9298C10.9968 11.8679 10.9624 11.8178 10.9199 11.8178Z" fill="white"/>
<path fill-rule="evenodd" clip-rule="evenodd" d="M8.4399 11.8094H10.9197C10.9653 11.8094 11.0022 11.8632 11.0022 11.9296C11.0022 11.9959 10.9653 12.0497 10.9197 12.0497H8.4399C8.39436 12.0497 8.35742 11.9959 8.35742 11.9296C8.35742 11.8632 8.39436 11.8094 8.4399 11.8094ZM8.4399 11.8176H10.9197C10.9622 11.8176 10.9966 11.8677 10.9966 11.9296C10.9966 11.9914 10.9622 12.0415 10.9197 12.0415H8.4399C8.39748 12.0415 8.36308 11.9914 8.36308 11.9296C8.36308 11.8677 8.39748 11.8176 8.4399 11.8176Z" fill="white"/>
<path d="M13.0604 12.8397H10.7872C10.7483 12.8397 10.7168 12.8898 10.7168 12.9516C10.7168 13.0134 10.7483 13.0636 10.7872 13.0636H13.0604C13.0993 13.0636 13.1308 13.0134 13.1308 12.9516C13.1308 12.8898 13.0993 12.8397 13.0604 12.8397Z" fill="white"/>
<path fill-rule="evenodd" clip-rule="evenodd" d="M10.7865 12.8312H13.0597C13.1015 12.8312 13.1353 12.885 13.1353 12.9514C13.1353 13.0178 13.1015 13.0716 13.0597 13.0716H10.7865C10.7448 13.0716 10.7109 13.0178 10.7109 12.9514C10.7109 12.885 10.7448 12.8312 10.7865 12.8312ZM10.7865 12.8395H13.0597C13.0986 12.8395 13.1302 12.8896 13.1302 12.9514C13.1302 13.0132 13.0986 13.0633 13.0597 13.0633H10.7865C10.7477 13.0633 10.7161 13.0132 10.7161 12.9514C10.7161 12.8896 10.7477 12.8395 10.7865 12.8395Z" fill="white"/>
<path d="M11.9307 12.1586H9.45084C9.40842 12.1586 9.37402 12.2087 9.37402 12.2705C9.37402 12.3323 9.40842 12.3825 9.45084 12.3825H11.9307C11.9731 12.3825 12.0075 12.3323 12.0075 12.2705C12.0075 12.2087 11.9731 12.1586 11.9307 12.1586Z" fill="white"/>
<path fill-rule="evenodd" clip-rule="evenodd" d="M9.45065 12.1502H11.9305C11.976 12.1502 12.013 12.204 12.013 12.2704C12.013 12.3367 11.976 12.3906 11.9305 12.3906H9.45065C9.4051 12.3906 9.36816 12.3367 9.36816 12.2704C9.36816 12.204 9.4051 12.1502 9.45065 12.1502ZM9.45065 12.1584H11.9305C11.9729 12.1584 12.0073 12.2086 12.0073 12.2704C12.0073 12.3322 11.9729 12.3823 11.9305 12.3823H9.45065C9.40822 12.3823 9.37382 12.3322 9.37382 12.2704C9.37382 12.2086 9.40822 12.1584 9.45065 12.1584Z" fill="white"/>
<path d="M13.6287 12.4992H11.3461C11.3071 12.4992 11.2754 12.5493 11.2754 12.6111C11.2754 12.6729 11.3071 12.7231 11.3461 12.7231H13.6287C13.6677 12.7231 13.6994 12.6729 13.6994 12.6111C13.6994 12.5493 13.6677 12.4992 13.6287 12.4992Z" fill="white"/>
<path fill-rule="evenodd" clip-rule="evenodd" d="M11.3455 12.4906H13.628C13.67 12.4906 13.704 12.5444 13.704 12.6108C13.704 12.6771 13.67 12.731 13.628 12.731H11.3455C11.3035 12.731 11.2695 12.6771 11.2695 12.6108C11.2695 12.5444 11.3035 12.4906 11.3455 12.4906ZM11.3455 12.4988H13.628C13.6671 12.4988 13.6987 12.549 13.6987 12.6108C13.6987 12.6726 13.6671 12.7227 13.628 12.7227H11.3455C11.3064 12.7227 11.2747 12.6726 11.2747 12.6108C11.2747 12.549 11.3064 12.4988 11.3455 12.4988Z" fill="white"/>
<path d="M11.8798 11.8282H11.3495C11.2746 11.8282 11.2139 11.8784 11.2139 11.9402C11.2139 12.002 11.2746 12.0521 11.3495 12.0521H11.8798C11.9547 12.0521 12.0154 12.002 12.0154 11.9402C12.0154 11.8784 11.9547 11.8282 11.8798 11.8282Z" fill="white"/>
<path fill-rule="evenodd" clip-rule="evenodd" d="M11.3487 11.8197H11.879C11.9594 11.8197 12.0246 11.8735 12.0246 11.9398C12.0246 12.0062 11.9594 12.06 11.879 12.06H11.3487C11.2683 12.06 11.2031 12.0062 11.2031 11.9398C11.2031 11.8735 11.2683 11.8197 11.3487 11.8197ZM11.3487 11.8279H11.879C11.9539 11.8279 12.0146 11.878 12.0146 11.9398C12.0146 12.0017 11.9539 12.0518 11.879 12.0518H11.3487C11.2738 12.0518 11.2131 12.0017 11.2131 11.9398C11.2131 11.878 11.2738 11.8279 11.3487 11.8279Z" fill="white"/>
<path d="M14.0025 12.8396H13.4787C13.4047 12.8396 13.3447 12.8897 13.3447 12.9516C13.3447 13.0134 13.4047 13.0635 13.4787 13.0635H14.0025C14.0765 13.0635 14.1365 13.0134 14.1365 12.9516C14.1365 12.8897 14.0765 12.8396 14.0025 12.8396Z" fill="white"/>
<path fill-rule="evenodd" clip-rule="evenodd" d="M13.4778 12.8312H14.0016C14.0811 12.8312 14.1455 12.885 14.1455 12.9514C14.1455 13.0178 14.0811 13.0716 14.0016 13.0716H13.4778C13.3984 13.0716 13.334 13.0178 13.334 12.9514C13.334 12.885 13.3984 12.8312 13.4778 12.8312ZM13.4778 12.8395H14.0016C14.0756 12.8395 14.1356 12.8896 14.1356 12.9514C14.1356 13.0132 14.0756 13.0633 14.0016 13.0633H13.4778C13.4038 13.0633 13.3439 13.0132 13.3439 12.9514C13.3439 12.8896 13.4038 12.8395 13.4778 12.8395Z" fill="white"/>
<path d="M9.02596 12.1585H8.50211C8.42814 12.1585 8.36816 12.2086 8.36816 12.2704C8.36816 12.3322 8.42813 12.3823 8.50211 12.3823H9.02596C9.09992 12.3823 9.1599 12.3322 9.1599 12.2704C9.1599 12.2086 9.09993 12.1585 9.02596 12.1585Z" fill="white"/>
<path fill-rule="evenodd" clip-rule="evenodd" d="M8.50123 12.1502H9.02508C9.10451 12.1502 9.1689 12.204 9.1689 12.2704C9.1689 12.3368 9.1045 12.3906 9.02508 12.3906H8.50123C8.42181 12.3906 8.35742 12.3368 8.35742 12.2704C8.35742 12.204 8.42182 12.1502 8.50123 12.1502ZM8.50123 12.1585H9.02508C9.09906 12.1585 9.15903 12.2086 9.15903 12.2704C9.15903 12.3322 9.09905 12.3823 9.02508 12.3823H8.50123C8.42726 12.3823 8.36729 12.3322 8.36729 12.2704C8.36729 12.2086 8.42727 12.1585 8.50123 12.1585Z" fill="white"/>
<path d="M10.9303 12.499H10.4064C10.3324 12.499 10.2725 12.5491 10.2725 12.6109C10.2725 12.6728 10.3324 12.7229 10.4064 12.7229H10.9303C11.0042 12.7229 11.0642 12.6728 11.0642 12.6109C11.0642 12.5491 11.0042 12.499 10.9303 12.499Z" fill="white"/>
<path fill-rule="evenodd" clip-rule="evenodd" d="M10.4055 12.4906H10.9294C11.0088 12.4906 11.0732 12.5444 11.0732 12.6108C11.0732 12.6772 11.0088 12.731 10.9294 12.731H10.4055C10.3261 12.731 10.2617 12.6772 10.2617 12.6108C10.2617 12.5444 10.3261 12.4906 10.4055 12.4906ZM10.4055 12.4989H10.9294C11.0034 12.4989 11.0633 12.549 11.0633 12.6108C11.0633 12.6726 11.0033 12.7227 10.9294 12.7227H10.4055C10.3316 12.7227 10.2716 12.6726 10.2716 12.6108C10.2716 12.549 10.3316 12.4989 10.4055 12.4989Z" fill="white"/>
<path d="M10.5553 13.0012L10.3922 12.8925C10.0436 12.6602 9.63787 12.5374 9.219 12.5374H7.20745C7.88157 12.1981 8.54344 11.5608 9.18171 10.632C9.23603 10.5529 9.28768 10.4746 9.33799 10.3969C9.34111 10.3943 9.3449 10.3932 9.34779 10.3903C9.36226 10.3759 9.37016 10.358 9.37495 10.3395C9.77034 9.71982 10.0313 9.17207 10.118 8.98154C10.7626 9.31618 11.8527 9.8695 11.8661 9.87629C11.8821 9.8843 11.8993 9.88831 11.9166 9.88831C11.9368 9.88831 11.957 9.88285 11.9748 9.87184C12.0077 9.85158 12.0279 9.81575 12.0279 9.77702C12.0279 9.32097 11.7097 8.76554 11.3161 8.53106H12.2746C12.336 8.53106 12.3859 8.4812 12.3859 8.41977C12.3859 7.9902 12.0363 7.64076 11.6067 7.64076H11.1753L11.9723 7.1807C12.0257 7.14999 12.0438 7.08188 12.0131 7.02869C11.7982 6.65677 11.3207 6.52868 10.9487 6.74357L10.0483 7.26328V6.63918C10.0483 6.57775 9.99842 6.5279 9.93697 6.5279C9.51565 6.5279 9.17136 6.86387 9.15811 7.28198L8.16776 6.74357C7.79563 6.52879 7.31832 6.65677 7.10338 7.02869C7.07265 7.08199 7.09091 7.14999 7.14412 7.1807L7.94123 7.64076H7.50989C7.09481 7.64076 6.7307 8.00478 6.7307 8.41977C6.7307 8.4812 6.78057 8.53106 6.84201 8.53106H7.80031C7.40682 8.76542 7.08857 9.32097 7.08857 9.77702C7.08857 9.81475 7.10772 9.84991 7.13944 9.87039C7.17128 9.89098 7.21113 9.89409 7.24552 9.87851L9.30471 8.95506C8.68915 10.4366 6.02386 11.6442 5.99559 11.6568C5.95551 11.6747 5.92969 11.7144 5.92969 11.7584V12.6487V13.0938C5.92969 13.1552 5.97956 13.2051 6.041 13.2051H10.4935C10.5425 13.2051 10.5859 13.1729 10.6001 13.1261C10.6143 13.0791 10.5961 13.0285 10.5553 13.0012ZM9.66971 9.38585L9.40868 9.25531C9.48092 9.12165 9.5398 8.98499 9.58155 8.84589L9.70154 8.81595L9.90302 8.91666C9.85816 9.01326 9.77891 9.17852 9.66971 9.38585ZM7.32979 9.59685C7.39747 9.2533 7.64191 8.87927 7.92342 8.7169L8.24534 8.53106H8.71252C8.77397 8.53106 8.82384 8.4812 8.82384 8.41977C8.82384 8.35834 8.77397 8.30848 8.71252 8.30848H8.21551H8.15596H6.96679C7.02145 8.08057 7.23584 7.86334 7.50978 7.86334H8.33239L8.79935 8.07589C8.81438 8.08268 8.82996 8.08591 8.84543 8.08591C8.88773 8.08591 8.92814 8.06176 8.94684 8.02081C8.97233 7.96483 8.94762 7.89884 8.89163 7.87335L8.40764 7.653L7.36151 7.04916C7.53316 6.85541 7.82402 6.80211 8.05889 6.93765L9.21588 7.56665C9.25028 7.58534 9.29213 7.58467 9.32597 7.56453C9.3597 7.5445 9.3804 7.50822 9.3804 7.46894V7.3069C9.3804 7.03815 9.57197 6.81335 9.82566 6.76171V7.45603C9.82566 7.49576 9.84681 7.53259 9.88131 7.5524C9.91582 7.57221 9.95812 7.57232 9.99263 7.5524L11.0599 6.93632C11.2927 6.802 11.5832 6.8553 11.7548 7.04916L10.7087 7.653L10.2247 7.87335C10.1688 7.89884 10.144 7.96483 10.1695 8.02081C10.1883 8.06176 10.2287 8.08591 10.2709 8.08591C10.2864 8.08591 10.3021 8.08268 10.317 8.07589L10.7841 7.86334H11.6067C11.8755 7.86334 12.1003 8.05486 12.152 8.30848H10.9388H10.9009H10.3822C10.3208 8.30848 10.2709 8.35834 10.2709 8.41977C10.2709 8.4812 10.3208 8.53106 10.3822 8.53106H10.8711L11.1931 8.7169C11.4714 8.87749 11.7134 9.24474 11.7844 9.58494C11.3421 9.36003 10.2246 8.79069 9.87063 8.59994C9.77345 8.54753 9.65702 8.54675 9.56452 8.59482L7.32979 9.59685ZM9.29414 9.44706L9.56396 9.58193C9.47201 9.74875 9.36471 9.93371 9.24304 10.1282L8.97678 9.86204C9.09455 9.72805 9.20152 9.5895 9.29414 9.44706ZM8.82573 10.0257L9.12038 10.3203C9.00695 10.4935 8.88261 10.6711 8.74926 10.8472L8.40552 10.4175C8.55257 10.2929 8.69393 10.162 8.82573 10.0257ZM8.23321 10.5585L8.60878 11.0278C8.47598 11.1934 8.33473 11.3554 8.1859 11.5091L7.71248 10.9412C7.88636 10.8228 8.06201 10.6947 8.23321 10.5585ZM7.52592 11.0649L8.02717 11.6663C7.83092 11.8535 7.62299 12.0238 7.40437 12.1661L6.87329 11.4581C7.0721 11.3469 7.29484 11.215 7.52592 11.0649ZM6.15231 11.8298C6.24782 11.7853 6.43572 11.6948 6.67604 11.5662L7.21313 12.2822C7.0111 12.3948 6.80116 12.4828 6.58399 12.5374H6.15231V11.8298ZM6.15231 12.9825V12.7599H6.59757H9.219C9.53179 12.7599 9.83623 12.8365 10.1097 12.9825H6.15231Z" fill="white"/>
<path fill-rule="evenodd" clip-rule="evenodd" d="M9.68833 8.76422C9.70069 8.76114 9.71376 8.76257 9.72516 8.76827L9.92664 8.86899C9.95249 8.88191 9.96338 8.91305 9.9512 8.93926C9.90603 9.03653 9.82638 9.2026 9.7167 9.41084C9.70316 9.43656 9.67153 9.44673 9.64552 9.43372L9.3845 9.30318C9.37156 9.29672 9.3618 9.28528 9.35745 9.27149C9.35309 9.2577 9.35452 9.24274 9.36139 9.23002C9.43218 9.09905 9.48955 8.96575 9.53009 8.83064C9.53551 8.81259 9.55004 8.79872 9.56833 8.79416L9.68833 8.76422ZM9.62343 8.89052C9.5866 9.00654 9.53841 9.12048 9.48111 9.23204L9.64643 9.31472C9.72725 9.15961 9.7899 9.03098 9.83227 8.94126L9.69504 8.87266L9.62343 8.89052ZM9.24906 9.41805C9.26387 9.39526 9.29344 9.38723 9.31775 9.39938L9.58757 9.53426C9.60058 9.54076 9.61037 9.55228 9.6147 9.56616C9.61902 9.58004 9.61749 9.59508 9.61048 9.60782C9.51811 9.7754 9.41031 9.96121 9.28807 10.1567C9.27943 10.1705 9.26498 10.1796 9.2488 10.1814C9.23263 10.1833 9.21649 10.1776 9.20498 10.1661L8.93872 9.89992C8.9188 9.88 8.91777 9.84804 8.93637 9.82688C9.05269 9.69454 9.15805 9.55803 9.24906 9.41805ZM9.31232 9.51611C9.23336 9.63363 9.14508 9.74823 9.0495 9.85958L9.23291 10.043C9.32807 9.88875 9.41391 9.74125 9.48993 9.60489L9.31232 9.51611ZM8.82501 9.97243C8.83933 9.97231 8.8531 9.97795 8.86323 9.98808L9.15788 10.2827C9.17577 10.3005 9.17866 10.3285 9.16479 10.3497C9.05074 10.5238 8.92571 10.7024 8.79157 10.8795C8.78162 10.8926 8.76616 10.9004 8.74968 10.9007C8.7332 10.9009 8.71754 10.8935 8.70725 10.8806L8.36351 10.4509C8.34545 10.4284 8.34864 10.3955 8.37071 10.3768C8.51655 10.2533 8.65661 10.1235 8.78705 9.98871C8.79701 9.97842 8.81068 9.97255 8.82501 9.97243ZM8.82588 10.1018C8.71573 10.2133 8.59948 10.3211 8.47928 10.4246L8.74766 10.7601C8.85552 10.6154 8.95717 10.47 9.05153 10.3274L8.82588 10.1018ZM8.19966 10.5168C8.2227 10.4984 8.25625 10.5022 8.27465 10.5252L8.65022 10.9945C8.66585 11.014 8.66583 11.0418 8.65019 11.0613C8.51647 11.228 8.37412 11.3913 8.22401 11.5463C8.21346 11.5572 8.19878 11.5631 8.18363 11.5626C8.16848 11.562 8.15428 11.555 8.14457 11.5434L7.67116 10.9755C7.66151 10.9639 7.6572 10.9488 7.65929 10.9339C7.66138 10.919 7.66967 10.9056 7.68212 10.8971C7.85503 10.7794 8.0296 10.6521 8.19966 10.5168ZM7.79082 10.9522L8.18841 11.4291C8.31102 11.3 8.42839 11.1653 8.53997 11.0277L8.22439 10.6334C8.08133 10.7457 7.93563 10.8522 7.79082 10.9522ZM7.49654 11.0202C7.51924 11.0055 7.54937 11.0101 7.56669 11.0308L8.06793 11.6322C8.08593 11.6538 8.08411 11.6857 8.06377 11.7051C7.86565 11.8941 7.65515 12.0665 7.43325 12.211C7.40967 12.2263 7.37822 12.2208 7.36134 12.1983L6.83027 11.4903C6.82102 11.4779 6.81755 11.4622 6.82074 11.4472C6.82393 11.4321 6.83348 11.4191 6.84693 11.4116C7.04487 11.3009 7.26658 11.1695 7.49654 11.0202ZM6.95231 11.4749L7.41662 12.0939C7.60353 11.9683 7.78279 11.8221 7.95371 11.6621L7.51489 11.1356C7.31728 11.2627 7.1265 11.3763 6.95231 11.4749ZM6.65054 11.5192C6.67381 11.5067 6.70268 11.5131 6.71851 11.5342L7.2556 12.2502C7.26485 12.2626 7.26832 12.2783 7.26511 12.2934C7.26191 12.3085 7.25234 12.3214 7.23887 12.3289C7.03347 12.4434 6.81917 12.5334 6.59672 12.5893C6.59247 12.5904 6.5881 12.5909 6.58371 12.5909H6.15203C6.12253 12.5909 6.0986 12.567 6.0986 12.5375V11.8299C6.0986 11.8092 6.11064 11.7903 6.12946 11.7815C6.22421 11.7373 6.41121 11.6473 6.65054 11.5192ZM6.20546 11.8639V12.4841H6.57706C6.76765 12.4356 6.95312 12.3605 7.13304 12.2649L6.66049 11.6349C6.46158 11.7405 6.30184 11.8184 6.20546 11.8639Z" fill="white"/>
<path d="M14.3309 7.19891C14.3309 6.83067 14.0313 6.53119 13.663 6.53119C13.2947 6.53119 12.9951 6.83067 12.9951 7.19891C12.9951 7.56716 13.2947 7.86663 13.663 7.86663C14.0313 7.86663 14.3309 7.56716 14.3309 7.19891ZM13.663 7.64406C13.4174 7.64406 13.2177 7.44441 13.2177 7.19891C13.2177 6.95342 13.4174 6.75377 13.663 6.75377C13.9086 6.75377 14.1083 6.95342 14.1083 7.19891C14.1083 7.44441 13.9086 7.64406 13.663 7.64406Z" fill="white"/>
<path fill-rule="evenodd" clip-rule="evenodd" d="M12.9434 7.19915C12.9434 6.8014 13.2668 6.47801 13.6647 6.47801C14.0625 6.47801 14.386 6.8014 14.386 7.19915C14.386 7.5969 14.0625 7.92028 13.6647 7.92028C13.2668 7.92028 12.9434 7.5969 12.9434 7.19915ZM13.6647 6.58485C13.3258 6.58485 13.0502 6.8604 13.0502 7.19915C13.0502 7.53789 13.3258 7.81345 13.6647 7.81345C14.0035 7.81345 14.2791 7.53789 14.2791 7.19915C14.2791 6.8604 14.0035 6.58485 13.6647 6.58485ZM13.6647 6.80742C13.4486 6.80742 13.2728 6.98315 13.2728 7.19915C13.2728 7.41514 13.4486 7.59088 13.6647 7.59088C13.8807 7.59088 14.0565 7.41514 14.0565 7.19915C14.0565 6.98315 13.8807 6.80742 13.6647 6.80742ZM13.166 7.19915C13.166 6.92415 13.3896 6.70058 13.6647 6.70058C13.9397 6.70058 14.1634 6.92415 14.1634 7.19915C14.1634 7.47415 13.9397 7.69771 13.6647 7.69771C13.3896 7.69771 13.166 7.47415 13.166 7.19915Z" fill="white"/>
<path d="M10.5553 13.0012L10.3922 12.8925C10.0436 12.6602 9.63787 12.5374 9.219 12.5374H7.20745C7.88157 12.1981 8.54344 11.5608 9.18171 10.632C9.23603 10.5529 9.28768 10.4746 9.33799 10.3969C9.34111 10.3943 9.3449 10.3932 9.34779 10.3903C9.36226 10.3759 9.37016 10.358 9.37495 10.3395C9.77034 9.71982 10.0313 9.17207 10.118 8.98154C10.7626 9.31618 11.8527 9.8695 11.8661 9.87629C11.8821 9.8843 11.8993 9.88831 11.9166 9.88831C11.9368 9.88831 11.957 9.88285 11.9748 9.87184C12.0077 9.85158 12.0279 9.81575 12.0279 9.77702C12.0279 9.32097 11.7097 8.76554 11.3161 8.53106H12.2746C12.336 8.53106 12.3859 8.4812 12.3859 8.41977C12.3859 7.9902 12.0363 7.64076 11.6067 7.64076H11.1753L11.9723 7.1807C12.0257 7.14999 12.0438 7.08188 12.0131 7.02869C11.7982 6.65677 11.3207 6.52868 10.9487 6.74357L10.0483 7.26328V6.63918C10.0483 6.57775 9.99842 6.5279 9.93697 6.5279C9.51565 6.5279 9.17136 6.86387 9.15811 7.28198L8.16776 6.74357C7.79563 6.52879 7.31832 6.65677 7.10338 7.02869C7.07265 7.08199 7.09091 7.14999 7.14412 7.1807L7.94123 7.64076H7.50989C7.09481 7.64076 6.7307 8.00478 6.7307 8.41977C6.7307 8.4812 6.78057 8.53106 6.84201 8.53106H7.80031C7.40682 8.76542 7.08857 9.32097 7.08857 9.77702C7.08857 9.81475 7.10772 9.84991 7.13944 9.87039C7.17128 9.89098 7.21113 9.89409 7.24552 9.87851L9.30471 8.95506C8.68915 10.4366 6.02386 11.6442 5.99559 11.6568C5.95551 11.6747 5.92969 11.7144 5.92969 11.7584V12.6487V13.0938C5.92969 13.1552 5.97956 13.2051 6.041 13.2051H10.4935C10.5425 13.2051 10.5859 13.1729 10.6001 13.1261C10.6143 13.0791 10.5961 13.0285 10.5553 13.0012ZM9.66971 9.38585L9.40868 9.25531C9.48092 9.12165 9.5398 8.98499 9.58155 8.84589L9.70154 8.81595L9.90302 8.91666C9.85816 9.01326 9.77891 9.17852 9.66971 9.38585ZM7.32979 9.59685C7.39747 9.2533 7.64191 8.87927 7.92342 8.7169L8.24534 8.53106H8.71252C8.77397 8.53106 8.82384 8.4812 8.82384 8.41977C8.82384 8.35834 8.77397 8.30848 8.71252 8.30848H8.21551H8.15596H6.96679C7.02145 8.08057 7.23584 7.86334 7.50978 7.86334H8.33239L8.79935 8.07589C8.81438 8.08268 8.82996 8.08591 8.84543 8.08591C8.88773 8.08591 8.92814 8.06176 8.94684 8.02081C8.97233 7.96483 8.94762 7.89884 8.89163 7.87335L8.40764 7.653L7.36151 7.04916C7.53316 6.85541 7.82402 6.80211 8.05889 6.93765L9.21588 7.56665C9.25028 7.58534 9.29213 7.58467 9.32597 7.56453C9.3597 7.5445 9.3804 7.50822 9.3804 7.46894V7.3069C9.3804 7.03815 9.57197 6.81335 9.82566 6.76171V7.45603C9.82566 7.49576 9.84681 7.53259 9.88131 7.5524C9.91582 7.57221 9.95812 7.57232 9.99263 7.5524L11.0599 6.93632C11.2927 6.802 11.5832 6.8553 11.7548 7.04916L10.7087 7.653L10.2247 7.87335C10.1688 7.89884 10.144 7.96483 10.1695 8.02081C10.1883 8.06176 10.2287 8.08591 10.2709 8.08591C10.2864 8.08591 10.3021 8.08268 10.317 8.07589L10.7841 7.86334H11.6067C11.8755 7.86334 12.1003 8.05486 12.152 8.30848H10.9388H10.9009H10.3822C10.3208 8.30848 10.2709 8.35834 10.2709 8.41977C10.2709 8.4812 10.3208 8.53106 10.3822 8.53106H10.8711L11.1931 8.7169C11.4714 8.87749 11.7134 9.24474 11.7844 9.58494C11.3421 9.36003 10.2246 8.79069 9.87063 8.59994C9.77345 8.54753 9.65702 8.54675 9.56452 8.59482L7.32979 9.59685ZM9.29414 9.44706L9.56396 9.58193C9.47201 9.74875 9.36471 9.93371 9.24304 10.1282L8.97678 9.86204C9.09455 9.72805 9.20152 9.5895 9.29414 9.44706ZM8.82573 10.0257L9.12038 10.3203C9.00695 10.4935 8.88261 10.6711 8.74926 10.8472L8.40552 10.4175C8.55257 10.2929 8.69393 10.162 8.82573 10.0257ZM8.23321 10.5585L8.60878 11.0278C8.47598 11.1934 8.33473 11.3554 8.1859 11.5091L7.71248 10.9412C7.88636 10.8228 8.06201 10.6947 8.23321 10.5585ZM7.52592 11.0649L8.02717 11.6663C7.83092 11.8535 7.62299 12.0238 7.40437 12.1661L6.87329 11.4581C7.0721 11.3469 7.29484 11.215 7.52592 11.0649ZM6.15231 11.8298C6.24782 11.7853 6.43572 11.6948 6.67604 11.5662L7.21313 12.2822C7.0111 12.3948 6.80116 12.4828 6.58399 12.5374H6.15231V11.8298ZM6.15231 12.9825V12.7599H6.59757H9.219C9.53179 12.7599 9.83623 12.8365 10.1097 12.9825H6.15231Z" fill="white"/>
<path d="M14.3309 7.19891C14.3309 6.83067 14.0313 6.53119 13.663 6.53119C13.2947 6.53119 12.9951 6.83067 12.9951 7.19891C12.9951 7.56716 13.2947 7.86663 13.663 7.86663C14.0313 7.86663 14.3309 7.56716 14.3309 7.19891ZM13.663 7.64406C13.4174 7.64406 13.2177 7.44441 13.2177 7.19891C13.2177 6.95342 13.4174 6.75377 13.663 6.75377C13.9086 6.75377 14.1083 6.95342 14.1083 7.19891C14.1083 7.44441 13.9086 7.64406 13.663 7.64406Z" fill="white"/>
</svg>
