<svg width="20" height="24" viewBox="0 0 20 24" fill="none" xmlns="http://www.w3.org/2000/svg">
<path fill-rule="evenodd" clip-rule="evenodd" d="M0.899477 8.99429C1.27686 4.36373 5.10279 0.80001 9.69668 0.80001H10.171C14.7649 0.80001 18.5908 4.36373 18.9682 8.99429C19.1714 11.4874 18.41 13.963 16.8443 15.8996L11.5806 22.4105C10.7295 23.4632 9.13824 23.4632 8.28716 22.4105L3.02339 15.8996C1.45772 13.963 0.696289 11.4874 0.899477 8.99429Z" fill="#F6F6F6"/>
<path fill-rule="evenodd" clip-rule="evenodd" d="M0.102316 8.9293C0.512932 3.891 4.67884 0 9.69687 0H10.1712C15.1893 0 19.3552 3.891 19.7658 8.9293C19.9856 11.6262 19.1621 14.3054 17.4666 16.4026L12.2029 22.9134C11.0316 24.3622 8.83652 24.3622 7.66524 22.9134L2.40147 16.4026C0.705977 14.3054 -0.11748 11.6262 0.102316 8.9293ZM9.69687 1.6C5.52712 1.6 2.04119 4.83643 1.69703 9.05926C1.51045 11.3486 2.20986 13.6206 3.6457 15.3967L8.90948 21.9075C9.44036 22.5642 10.4277 22.5642 10.9586 21.9075L16.2224 15.3966C17.6582 13.6206 18.3577 11.3486 18.1711 9.05926C17.8269 4.83642 14.341 1.6 10.1712 1.6H9.69687Z" fill="#20B08E"/>
<path d="M16.3342 9.86669C16.3342 13.4013 13.4688 16.2667 9.93421 16.2667C6.39957 16.2667 3.53418 13.4013 3.53418 9.86669C3.53418 6.33205 6.39957 3.46666 9.93421 3.46666C13.4688 3.46666 16.3342 6.33205 16.3342 9.86669Z" fill="#20B08E"/>
<path d="M14.1467 11.9417L13.8553 11.4358C13.931 11.4174 13.9873 11.3491 13.9873 11.2675C13.9873 11.2322 13.9768 11.1993 13.9587 11.1719L13.6457 10.6288C13.7262 10.614 13.7872 10.5434 13.7872 10.4585C13.7872 10.4232 13.7766 10.3903 13.7585 10.3629L12.7927 8.68661C12.7619 8.63302 12.7048 8.60001 12.6431 8.60001C12.5813 8.60001 12.5242 8.63303 12.4934 8.68661L12.2659 9.08143L11.4381 7.65432C11.4071 7.60097 11.3502 7.56815 11.2886 7.56815C11.227 7.56815 11.1701 7.60097 11.1392 7.65432L10.9094 8.05036L10.0875 6.63342C10.0566 6.58007 9.99966 6.54725 9.93809 6.54725C9.87652 6.54725 9.8196 6.58007 9.78864 6.63342L8.96344 8.05602L8.73041 7.6543C8.69948 7.60096 8.64255 7.56814 8.58098 7.56814C8.51941 7.56814 8.46249 7.60096 8.43154 7.6543L7.60394 9.08106L7.37668 8.68659C7.34581 8.633 7.28874 8.59999 7.22699 8.59999C7.16525 8.59999 7.10816 8.63302 7.07729 8.68659L6.10637 10.3719C6.0755 10.4255 6.0755 10.4915 6.10637 10.5451C6.13188 10.5894 6.17524 10.6196 6.22435 10.6288L5.90626 11.1809C5.87539 11.2345 5.87539 11.3005 5.90626 11.3541C5.93013 11.3955 5.9696 11.4246 6.01482 11.4357L5.72335 11.9417C5.69248 11.9953 5.69248 12.0613 5.72335 12.1149C5.75421 12.1685 5.81129 12.2015 5.87304 12.2015H7.05418V12.8348H6.84411C6.74866 12.8348 6.67126 12.9124 6.67126 13.0081C6.67126 13.1037 6.74866 13.1813 6.84411 13.1813H13.0321C13.1276 13.1813 13.205 13.1037 13.205 13.0081C13.205 12.9124 13.1276 12.8349 13.0321 12.8349H12.8159V12.2015H13.9971C14.0588 12.2015 14.1159 12.1685 14.1467 12.1149C14.1776 12.0613 14.1776 11.9953 14.1467 11.9417ZM9.93811 7.06514L10.7095 8.39504L10.3118 9.08071L10.0847 8.68659C10.0538 8.633 9.99678 8.59999 9.93501 8.59999C9.87328 8.59999 9.81619 8.63302 9.78532 8.68659L9.55804 9.08106L9.16337 8.4007L9.93811 7.06514ZM10.4903 10.5451L10.8096 11.0992C10.7644 11.1103 10.7249 11.1394 10.701 11.1809C10.6702 11.2345 10.6702 11.3005 10.701 11.3541L10.9897 11.8551H8.88042L9.16907 11.3541C9.19993 11.3005 9.19993 11.2345 9.16907 11.1809C9.1452 11.1395 9.10569 11.1104 9.06048 11.0992L9.37978 10.5451C9.41065 10.4915 9.41065 10.4255 9.37978 10.3719C9.35427 10.3276 9.31092 10.2974 9.26179 10.2882L9.93506 9.11962L10.1574 9.50549C10.16 9.51064 10.1629 9.51565 10.166 9.52054L10.6083 10.2882C10.5592 10.2973 10.5158 10.3276 10.4903 10.3718C10.4594 10.4254 10.4594 10.4915 10.4903 10.5451ZM6.17241 11.8551L6.46106 11.3541C6.49192 11.3005 6.49192 11.2345 6.46106 11.1809C6.4372 11.1395 6.39768 11.1104 6.35249 11.0992L6.67177 10.5451C6.70264 10.4915 6.70264 10.4255 6.67177 10.3719C6.64626 10.3276 6.60291 10.2974 6.55379 10.2882L7.22704 9.11962L7.90028 10.2882C7.85115 10.2974 7.80779 10.3276 7.7823 10.3719C7.75143 10.4255 7.75143 10.4915 7.7823 10.5451L8.1016 11.0992C8.05639 11.1104 8.01689 11.1395 7.99303 11.1809C7.96216 11.2345 7.96216 11.3005 7.99303 11.3541L8.28168 11.8551H6.17241ZM8.40818 12.8349H7.39989V12.2015H8.40818V12.8349ZM8.58103 11.6819L8.43928 11.4359C8.51504 11.4175 8.57131 11.3491 8.57131 11.2675C8.57131 11.2322 8.56078 11.1993 8.54267 11.1719L8.22974 10.6288C8.3102 10.614 8.37118 10.5434 8.37118 10.4585C8.37118 10.4232 8.36064 10.3903 8.34252 10.3629L7.80327 9.42691L8.58103 8.08602L9.35884 9.42691L8.8144 10.3719C8.78353 10.4255 8.78353 10.4915 8.8144 10.5451C8.8399 10.5894 8.88326 10.6196 8.93238 10.6288L8.61427 11.1809C8.5834 11.2345 8.5834 11.3005 8.61427 11.3541C8.63814 11.3955 8.67764 11.4247 8.72285 11.4358L8.58103 11.6819ZM9.76221 12.8349H8.75388V12.2015H9.76221V12.8349ZM11.1158 12.8349H10.1079V12.2015H11.1158V12.8349ZM11.2891 11.6819L11.1473 11.4358C11.2231 11.4174 11.2793 11.3491 11.2793 11.2675C11.2793 11.2322 11.2688 11.1993 11.2507 11.1719L10.9377 10.6288C11.0182 10.614 11.0792 10.5434 11.0792 10.4585C11.0792 10.4232 11.0686 10.3903 11.0505 10.3629L10.5111 9.42658L11.2886 8.08604L12.0666 9.42728L11.5224 10.3719C11.4915 10.4255 11.4915 10.4915 11.5224 10.5451C11.5479 10.5894 11.5913 10.6196 11.6404 10.6288L11.3223 11.1809C11.2914 11.2345 11.2914 11.3005 11.3223 11.3541C11.3461 11.3956 11.3857 11.4247 11.4309 11.4358L11.2891 11.6819ZM12.4702 12.8349H11.4615V12.2015H12.4702V12.8349ZM11.5884 11.8551L11.8771 11.3541C11.9079 11.3005 11.9079 11.2345 11.8771 11.1809C11.8532 11.1395 11.8137 11.1104 11.7685 11.0992L12.0878 10.5451C12.1187 10.4915 12.1187 10.4255 12.0878 10.3719C12.0623 10.3276 12.0189 10.2974 11.9698 10.2882L12.6431 9.11962L13.3163 10.2882C13.2672 10.2974 13.2238 10.3276 13.1983 10.3719C13.1675 10.4255 13.1675 10.4915 13.1983 10.5451L13.5176 11.0992C13.4724 11.1104 13.4329 11.1395 13.4091 11.1809C13.3782 11.2345 13.3782 11.3005 13.4091 11.3541L13.6977 11.8551H11.5884Z" fill="white"/>
<path fill-rule="evenodd" clip-rule="evenodd" d="M9.77003 6.6225C9.80477 6.56263 9.86867 6.52578 9.93778 6.52578C10.0069 6.52578 10.0708 6.56263 10.1055 6.62251C10.1055 6.62251 10.1055 6.62251 10.1055 6.62251L10.9091 8.00789L11.1206 7.64341C11.1553 7.58353 11.2192 7.54669 11.2883 7.54669C11.3574 7.54669 11.4213 7.58353 11.4561 7.64341L12.2655 9.03885L12.4747 8.67575C12.5094 8.61561 12.5734 8.57855 12.6427 8.57855C12.7121 8.57855 12.7761 8.61559 12.8108 8.67576L13.7762 10.3515C13.7964 10.3822 13.808 10.4189 13.808 10.4582C13.808 10.5433 13.7535 10.6156 13.6776 10.642L13.9764 11.1605C13.9965 11.1912 14.0082 11.2279 14.0082 11.2673C14.0082 11.3491 13.9578 11.419 13.8864 11.4477L14.1648 11.9309C14.1994 11.991 14.1994 12.0651 14.1648 12.1253L14.1648 12.1253C14.1301 12.1854 14.066 12.2225 13.9967 12.2225H12.8368V12.8134H13.0318C13.139 12.8134 13.2258 12.9004 13.2258 13.0078C13.2258 13.1152 13.139 13.2022 13.0318 13.2022H6.8438C6.73666 13.2022 6.64978 13.1152 6.64978 13.0078C6.64978 12.9004 6.73666 12.8134 6.8438 12.8134H7.0327V12.2225H5.87273C5.80341 12.2225 5.73935 12.1854 5.7047 12.1253C5.67005 12.0651 5.67005 11.991 5.7047 11.9308L5.9831 11.4476C5.94352 11.4316 5.90965 11.4027 5.88761 11.3645C5.85296 11.3043 5.85296 11.2302 5.88761 11.17L6.19191 10.6419C6.14862 10.6267 6.11135 10.5965 6.08772 10.5554C6.05307 10.4953 6.05307 10.4212 6.08772 10.361L7.05865 8.67574C7.0933 8.61559 7.15738 8.57853 7.22668 8.57853C7.29599 8.57853 7.36005 8.61557 7.39471 8.67574C7.39471 8.67574 7.39471 8.67574 7.39471 8.67574L7.60369 9.03848L8.41292 7.64339C8.44766 7.58351 8.51156 7.54667 8.58067 7.54667C8.64979 7.54667 8.71368 7.58351 8.74841 7.64339C8.74841 7.64339 8.74841 7.64339 8.74841 7.64339L8.96313 8.01355L9.77003 6.6225ZM9.93778 6.56822C9.88375 6.56822 9.8338 6.59702 9.80664 6.64383L8.96313 8.09799L8.71179 7.66472C8.68465 7.61791 8.6347 7.58911 8.58067 7.58911C8.52665 7.58911 8.47669 7.61791 8.44953 7.66472L7.60357 9.12315L7.35803 8.69696C7.33095 8.64993 7.28087 8.62097 7.22668 8.62097C7.1725 8.62097 7.12241 8.64994 7.09532 8.69696L6.1244 10.3822C6.1244 10.3822 6.1244 10.3822 6.1244 10.3822C6.09731 10.4293 6.09731 10.4872 6.1244 10.5342C6.14678 10.5731 6.18483 10.5996 6.22792 10.6077L6.25734 10.6132L5.92428 11.1912C5.92428 11.1912 5.92429 11.1912 5.92428 11.1912C5.8972 11.2383 5.8972 11.2962 5.92428 11.3432C5.94523 11.3796 5.97986 11.4051 6.01955 11.4149L6.04696 11.4216L5.74138 11.9521C5.74137 11.9521 5.74138 11.9521 5.74138 11.9521C5.71429 11.9991 5.71429 12.057 5.74138 12.1041C5.76846 12.1511 5.81854 12.18 5.87273 12.18H7.07505V12.8558H6.8438C6.76005 12.8558 6.69212 12.9239 6.69212 13.0078C6.69212 13.0918 6.76004 13.1598 6.8438 13.1598H13.0318C13.1156 13.1598 13.1835 13.0918 13.1835 13.0078C13.1835 12.9239 13.1156 12.8558 13.0318 12.8558H12.7944V12.1801H13.9967C14.0509 12.1801 14.101 12.1511 14.1281 12.1041C14.1552 12.057 14.1552 11.9991 14.1281 11.9521L13.8225 11.4217L13.85 11.415C13.9165 11.3988 13.9658 11.3388 13.9658 11.2673C13.9658 11.2362 13.9566 11.2074 13.9407 11.1834L13.9403 11.1829L13.6121 10.6131L13.6416 10.6077C13.7122 10.5947 13.7657 10.5327 13.7657 10.4582C13.7657 10.4272 13.7564 10.3984 13.7406 10.3744L13.7402 10.3739L12.7741 8.69697C12.747 8.64995 12.697 8.62098 12.6427 8.62098C12.5886 8.62098 12.5385 8.64996 12.5114 8.69697L12.2656 9.12351L11.4194 7.66474C11.3923 7.61793 11.3423 7.58912 11.2883 7.58912C11.2343 7.58912 11.1843 7.61792 11.1572 7.66474L10.9091 8.09234L10.0689 6.64383C10.0418 6.59702 9.99181 6.56822 9.93778 6.56822ZM9.9378 7.02267L10.7337 8.39479L10.3114 9.1228L10.0661 8.69696C10.039 8.64993 9.98891 8.62097 9.9347 8.62097C9.88053 8.62097 9.83043 8.64994 9.80335 8.69696L9.5578 9.12314L9.13857 8.40046L9.9378 7.02267ZM9.18756 8.40046L9.55767 9.03849L9.76667 8.67574C9.80132 8.61559 9.8654 8.57853 9.9347 8.57853C10.004 8.57853 10.0681 8.61558 10.1027 8.67574L10.3115 9.03814L10.6847 8.39479L9.9378 7.10711L9.18756 8.40046ZM8.58072 8.04355L9.383 9.42663L8.83242 10.3822C8.83242 10.3822 8.83243 10.3822 8.83242 10.3822C8.80534 10.4293 8.80534 10.4872 8.83242 10.5342C8.85481 10.5731 8.89285 10.5996 8.93595 10.6077L8.96537 10.6132L8.6323 11.1913C8.6323 11.1913 8.6323 11.1913 8.6323 11.1913C8.60521 11.2383 8.60521 11.2962 8.63229 11.3433C8.65324 11.3796 8.6879 11.4052 8.72758 11.4149L8.75499 11.4217L8.58072 11.7241L8.40648 11.4217L8.43399 11.415C8.50047 11.3989 8.54982 11.3388 8.54982 11.2673C8.54982 11.2362 8.54059 11.2074 8.52471 11.1834L8.52435 11.1829L8.19608 10.6131L8.22561 10.6077C8.2962 10.5947 8.34969 10.5327 8.34969 10.4582C8.34969 10.4272 8.34045 10.3984 8.32456 10.3744L8.3242 10.3739L7.77849 9.42663L8.58072 8.04355ZM11.2883 8.04357L12.0908 9.42699L11.5404 10.3823C11.5133 10.4293 11.5133 10.4872 11.5404 10.5343C11.5628 10.5731 11.6009 10.5996 11.644 10.6077L11.6734 10.6132L11.3403 11.1913C11.3132 11.2383 11.3132 11.2963 11.3403 11.3433C11.3612 11.3796 11.3959 11.4052 11.4356 11.4149L11.463 11.4217L11.2887 11.7241L11.1145 11.4217L11.142 11.415C11.2085 11.3988 11.2578 11.3388 11.2578 11.2673C11.2578 11.2362 11.2486 11.2074 11.2327 11.1834L11.2323 11.1829L10.9041 10.6131L10.9336 10.6077C11.0042 10.5947 11.0577 10.5327 11.0577 10.4582C11.0577 10.4272 11.0485 10.3984 11.0326 10.3744L11.0322 10.3739L10.4863 9.4263L11.2883 8.04357ZM8.58072 8.128L9.33406 9.4267L8.79575 10.361C8.7611 10.4212 8.7611 10.4953 8.79575 10.5554C8.81938 10.5965 8.85665 10.6267 8.89994 10.6419L8.59562 11.17C8.58972 11.1803 8.58482 11.1909 8.58093 11.2019C8.57571 11.1872 8.56878 11.1733 8.56038 11.1605L8.26159 10.642C8.33753 10.6156 8.39204 10.5433 8.39204 10.4582C8.39204 10.4189 8.38035 10.3822 8.36023 10.3515L7.82743 9.4267L8.58072 8.128ZM8.58092 11.3326C8.56225 11.3851 8.52176 11.4271 8.47041 11.4477L8.58072 11.6392L8.69113 11.4476C8.65156 11.4316 8.61765 11.4027 8.59562 11.3645C8.58972 11.3542 8.58482 11.3436 8.58092 11.3326ZM11.2883 8.12801L10.5352 9.42637L11.0682 10.3515C11.0884 10.3822 11.1 10.4189 11.1 10.4582C11.1 10.5433 11.0455 10.6156 10.9696 10.642L11.2684 11.1605C11.2768 11.1733 11.2837 11.1872 11.2889 11.2019C11.2928 11.191 11.2977 11.1803 11.3036 11.1701L11.6079 10.6419C11.5647 10.6267 11.5274 10.5965 11.5038 10.5555C11.4691 10.4953 11.4691 10.4212 11.5038 10.361L12.0419 9.42706L11.2883 8.12801ZM11.2889 11.3327C11.2703 11.3851 11.2298 11.4271 11.1784 11.4477L11.2888 11.6392L11.3991 11.4476C11.3596 11.4316 11.3257 11.4027 11.3036 11.3645C11.2977 11.3542 11.2928 11.3436 11.2889 11.3327ZM9.93475 9.07694L10.1757 9.49512L10.1759 9.49563C10.1782 9.50009 10.1807 9.50444 10.1835 9.50872L10.1838 9.50919L10.6413 10.3033L10.6118 10.3088C10.5687 10.3168 10.5307 10.3433 10.5083 10.3822C10.4812 10.4292 10.4812 10.4872 10.5083 10.5342C10.5083 10.5342 10.5083 10.5342 10.5083 10.5342L10.8417 11.1129L10.8143 11.1196C10.7746 11.1293 10.74 11.1549 10.7191 11.1912C10.692 11.2383 10.692 11.2962 10.7191 11.3432C10.7191 11.3432 10.7191 11.3432 10.7191 11.3432L11.026 11.8761H8.84343L9.15042 11.3432C9.1775 11.2962 9.17751 11.2383 9.15042 11.1913C9.12948 11.1549 9.09481 11.1294 9.05513 11.1196L9.02773 11.1129L9.36113 10.5342C9.36113 10.5342 9.36114 10.5342 9.36113 10.5342C9.38822 10.4872 9.38822 10.4292 9.36114 10.3822C9.33875 10.3434 9.30071 10.3168 9.25759 10.3088L9.22818 10.3033L9.93475 9.07694ZM7.22673 9.07694L7.93327 10.3033L7.90385 10.3088C7.86074 10.3168 7.82269 10.3434 7.80033 10.3822C7.77324 10.4292 7.77324 10.4872 7.80033 10.5342C7.80032 10.5342 7.80033 10.5342 7.80033 10.5342L8.13374 11.1129L8.10633 11.1196C8.06665 11.1294 8.03199 11.1549 8.01106 11.1912C7.98398 11.2383 7.98397 11.2962 8.01106 11.3432C8.01106 11.3432 8.01106 11.3432 8.01106 11.3432L8.31805 11.8761H6.13542L6.44241 11.3432C6.46949 11.2962 6.46949 11.2383 6.44241 11.1912C6.42148 11.1549 6.3868 11.1294 6.34713 11.1196L6.31973 11.1129L6.65312 10.5342C6.65312 10.5342 6.65312 10.5342 6.65312 10.5342C6.68021 10.4872 6.68021 10.4292 6.65313 10.3822C6.63074 10.3434 6.5927 10.3168 6.5496 10.3088L6.52018 10.3033L7.22673 9.07694ZM12.6428 9.07694L13.3493 10.3033L13.3199 10.3088C13.2768 10.3168 13.2387 10.3434 13.2164 10.3822C13.1893 10.4292 13.1893 10.4872 13.2164 10.5342L13.5498 11.1129L13.5224 11.1196C13.4827 11.1294 13.448 11.1549 13.4271 11.1912C13.4 11.2383 13.4 11.2962 13.4271 11.3432L13.7341 11.8761H11.5514L11.8584 11.3432C11.8855 11.2962 11.8855 11.2383 11.8584 11.1913C11.8375 11.1549 11.8028 11.1294 11.7631 11.1196L11.7357 11.1129L12.0691 10.5342C12.0962 10.4872 12.0962 10.4292 12.0691 10.3822C12.0468 10.3434 12.0087 10.3168 11.9656 10.3088L11.9362 10.3033L12.6428 9.07694ZM9.29361 10.2746C9.33691 10.2897 9.37418 10.32 9.39781 10.361C9.43246 10.4212 9.43246 10.4953 9.39781 10.5554L9.09159 11.0869C9.13115 11.1029 9.16506 11.1318 9.18709 11.17C9.22174 11.2302 9.22175 11.3043 9.18709 11.3644C9.18709 11.3644 9.18709 11.3644 9.18709 11.3644L8.91678 11.8336H10.9527L10.6824 11.3644C10.6477 11.3043 10.6477 11.2302 10.6824 11.17C10.7044 11.1318 10.7383 11.1029 10.7779 11.0869L10.4716 10.5554C10.437 10.4953 10.437 10.4211 10.4717 10.361C10.4717 10.361 10.4717 10.361 10.4717 10.361C10.4953 10.32 10.5325 10.2897 10.5758 10.2746L10.5896 10.2985L10.608 10.2879L10.6041 10.2671C10.5944 10.2689 10.585 10.2714 10.5758 10.2746L10.1477 9.53138C10.1478 9.53154 10.1479 9.5317 10.148 9.53187L10.1657 9.52029L10.1474 9.5309L10.1477 9.53138C10.1443 9.52619 10.1412 9.52087 10.1384 9.51537L10.1387 9.51585L10.157 9.50524L10.1382 9.51485C10.1383 9.51502 10.1383 9.5152 10.1384 9.51537L9.93475 9.16181L9.95309 9.12998L9.93475 9.11937L9.91642 9.12998L9.93475 9.16181L9.29361 10.2746ZM12.0016 10.2746C12.0449 10.2897 12.0822 10.32 12.1058 10.361C12.1405 10.4212 12.1405 10.4953 12.1058 10.5554L11.7996 11.0869C11.8392 11.1029 11.8731 11.1318 11.8951 11.17C11.9298 11.2302 11.9298 11.3043 11.8951 11.3645L11.6248 11.8336H13.6607L13.3904 11.3645C13.3558 11.3043 13.3558 11.2302 13.3904 11.17C13.4124 11.1318 13.4463 11.1029 13.4859 11.0869L13.1797 10.5554C13.145 10.4953 13.145 10.4212 13.1797 10.361C13.2033 10.32 13.2406 10.2897 13.2839 10.2746L12.6428 9.16181L12.0016 10.2746ZM6.58561 10.2746C6.6289 10.2897 6.66617 10.32 6.6898 10.361C6.72445 10.4212 6.72445 10.4953 6.6898 10.5554L6.38359 11.0869C6.42315 11.1029 6.45706 11.1318 6.47908 11.17C6.51373 11.2302 6.51373 11.3043 6.47908 11.3645L6.20877 11.8336H8.2447L7.97439 11.3645C7.93974 11.3043 7.93973 11.2302 7.97438 11.17C7.99641 11.1318 8.03031 11.1029 8.06988 11.0869L7.76365 10.5554C7.729 10.4953 7.729 10.4212 7.76365 10.361C7.78726 10.32 7.82454 10.2897 7.86784 10.2746L7.22673 9.16181L6.58561 10.2746ZM7.3784 12.1801H8.42904V12.8558H7.3784V12.1801ZM7.42075 12.2225V12.8134H8.3867V12.2225H7.42075ZM8.7324 12.1801H9.78308V12.8558H8.7324V12.1801ZM8.77475 12.2225V12.8134H9.74073V12.2225H8.77475ZM10.0864 12.1801H11.1367V12.8558H10.0864V12.1801ZM10.1288 12.2225V12.8134H11.0943V12.2225H10.1288ZM11.44 12.1801H12.4911V12.8558H11.44V12.1801ZM11.4824 12.2225V12.8134H12.4487V12.2225H11.4824Z" fill="white"/>
</svg>
