<svg width="20" height="24" viewBox="0 0 20 24" fill="none" xmlns="http://www.w3.org/2000/svg">
<path fill-rule="evenodd" clip-rule="evenodd" d="M0.964907 8.99429C1.34229 4.36373 5.16822 0.80001 9.76211 0.80001H10.2365C14.8304 0.80001 18.6563 4.36373 19.0337 8.99429C19.2369 11.4874 18.4754 13.963 16.9098 15.8996L11.646 22.4105C10.7949 23.4632 9.20367 23.4632 8.35259 22.4105L3.08882 15.8996C1.52315 13.963 0.761719 11.4874 0.964907 8.99429Z" fill="#F6F6F6"/>
<path fill-rule="evenodd" clip-rule="evenodd" d="M0.167746 8.9293C0.578362 3.891 4.74427 0 9.7623 0H10.2367C15.2547 0 19.4206 3.891 19.8312 8.9293C20.051 11.6262 19.2276 14.3054 17.5321 16.4026L12.2683 22.9134C11.097 24.3622 8.90195 24.3622 7.73067 22.9134L2.4669 16.4026C0.771407 14.3054 -0.0520501 11.6262 0.167746 8.9293ZM9.7623 1.6C5.59255 1.6 2.10662 4.83643 1.76246 9.05926C1.57588 11.3486 2.27529 13.6206 3.71113 15.3967L8.97491 21.9075C9.50579 22.5642 10.4932 22.5642 11.0241 21.9075L16.2878 15.3966C17.7237 13.6206 18.4231 11.3486 18.2365 9.05926C17.8923 4.83642 14.4064 1.6 10.2367 1.6H9.7623Z" fill="#2E83D2"/>
<path d="M16.3997 9.86669C16.3997 13.4013 13.5343 16.2667 9.99964 16.2667C6.465 16.2667 3.59961 13.4013 3.59961 9.86669C3.59961 6.33205 6.465 3.46666 9.99964 3.46666C13.5343 3.46666 16.3997 6.33205 16.3997 9.86669Z" fill="#2E83D2"/>
<path d="M10.9538 13.8732C9.7679 13.8732 8.67939 13.4626 8.0409 12.7736C7.64276 12.3439 7.45217 11.8454 7.49135 11.331C7.53052 10.8167 7.82171 10.4431 8.19761 10.0166C8.45809 9.72233 8.51527 9.52442 8.48562 9.43763C8.44644 9.3318 8.23573 9.24607 8.11925 9.22596C7.30075 9.21961 6.59131 8.95714 6.2133 8.52004C6.11042 8.40796 6.03377 8.27442 5.9889 8.12907C5.94403 7.98373 5.93207 7.83023 5.95388 7.6797C6.07247 6.91662 7.08157 6.34088 8.30032 6.34088C9.54342 6.34088 10.49 6.93567 10.5028 7.72309C10.508 8.00633 10.4032 8.28059 10.2105 8.48829C9.98073 8.74018 9.94473 8.91163 9.96379 8.95079C9.96379 8.95079 10.0496 9.13388 10.7982 9.15505C12.6046 9.20691 14.051 10.1139 14.2363 11.3109C14.2748 11.5733 14.2543 11.841 14.1765 12.0945C14.0987 12.348 13.9654 12.5811 13.7863 12.7768C13.1976 13.4615 12.1376 13.8732 10.9538 13.8732ZM8.30667 6.97166C7.3664 6.97166 6.64637 7.395 6.58814 7.77284C6.58083 7.83286 6.58723 7.89375 6.60685 7.95094C6.62647 8.00814 6.65881 8.06014 6.70143 8.10304C6.95027 8.39727 7.51888 8.58777 8.14255 8.58777H8.19231C8.26432 8.59941 8.89646 8.71266 9.07858 9.22279C9.20564 9.57628 9.06799 9.98481 8.6688 10.4367C8.35114 10.7944 8.13937 11.0537 8.11925 11.3787C8.11319 11.5567 8.14401 11.7341 8.20979 11.8996C8.27557 12.0652 8.37489 12.2153 8.5015 12.3407C9.02246 12.9016 9.93732 13.2371 10.9485 13.2371C11.9597 13.2371 12.8301 12.908 13.3024 12.3576C13.4196 12.2307 13.5077 12.0797 13.5604 11.9151C13.6131 11.7506 13.6291 11.5765 13.6073 11.4051C13.4707 10.5246 12.2552 9.82923 10.7781 9.78689C9.9945 9.76467 9.53601 9.57522 9.37718 9.19527C9.23847 8.8693 9.36553 8.46712 9.73402 8.06388C9.77694 8.0198 9.81065 7.96762 9.83319 7.91038C9.85573 7.85315 9.86665 7.792 9.86532 7.7305C9.86426 7.37066 9.21941 6.97166 8.30349 6.97166H8.30667ZM12.5993 7.06797L12.09 5.86038L11.64 7.06797H11.9619V7.44792H12.2785V7.06797H12.5993ZM13.8 8.81426L13.0991 7.1537L12.4807 8.81426H12.9223V9.33709H13.3574V8.81426H13.8ZM7.06251 11.1469L6.3626 9.48738L5.74316 11.1469H6.18577V11.6708H6.6199V11.1469H7.06251ZM7.60994 13.2625L7.04133 11.9153L6.53943 13.2625H6.89838V13.6859H7.25098V13.2625H7.60994ZM11.64 8.35811L11.1751 7.2553L10.7632 8.35811H11.0576V8.70631H11.3456V8.35811H11.64ZM11.2132 12.9027C11.1785 12.9027 11.1441 12.8959 11.1119 12.8826C11.0798 12.8693 11.0506 12.8498 11.026 12.8252C11.0015 12.8007 10.9819 12.7715 10.9686 12.7394C10.9553 12.7073 10.9485 12.6729 10.9485 12.6381C10.9485 12.6034 10.9553 12.569 10.9686 12.5368C10.9819 12.5047 11.0015 12.4756 11.026 12.451C11.0506 12.4264 11.0798 12.4069 11.1119 12.3936C11.1441 12.3804 11.1785 12.3735 11.2132 12.3735C12.0159 12.3735 12.72 11.984 12.72 11.5406C12.7159 11.4236 12.6718 11.3115 12.5951 11.2231C12.5513 11.1682 12.531 11.0982 12.5389 11.0284C12.5467 10.9587 12.582 10.8949 12.6369 10.8511C12.6918 10.8073 12.7618 10.7871 12.8316 10.7949C12.9014 10.8028 12.9653 10.838 13.0091 10.8929C13.1613 11.076 13.2461 11.3057 13.2494 11.5438C13.2484 12.3037 12.3547 12.9027 11.2132 12.9027Z" fill="white"/>
</svg>
