<svg width="20" height="24" viewBox="0 0 20 24" fill="none" xmlns="http://www.w3.org/2000/svg">
<path fill-rule="evenodd" clip-rule="evenodd" d="M0.832094 8.99429C1.20948 4.36373 5.03541 0.80001 9.62929 0.80001H10.1037C14.6975 0.80001 18.5235 4.36373 18.9008 8.99429C19.104 11.4874 18.3426 13.963 16.7769 15.8996L11.5132 22.4105C10.6621 23.4632 9.07086 23.4632 8.21978 22.4105L2.95601 15.8996C1.39034 13.963 0.628906 11.4874 0.832094 8.99429Z" fill="#F6F6F6"/>
<path fill-rule="evenodd" clip-rule="evenodd" d="M0.0349333 8.9293C0.445549 3.891 4.61146 0 9.62949 0H10.1038C15.1219 0 19.2878 3.891 19.6984 8.9293C19.9182 11.6262 19.0947 14.3054 17.3993 16.4026L12.1355 22.9134C10.9642 24.3622 8.76913 24.3622 7.59786 22.9134L2.33408 16.4026C0.638594 14.3054 -0.184863 11.6262 0.0349333 8.9293ZM9.62949 1.6C5.45974 1.6 1.9738 4.83643 1.62965 9.05926C1.44307 11.3486 2.14247 13.6206 3.57832 15.3967L8.84209 21.9075C9.37298 22.5642 10.3604 22.5642 10.8912 21.9075L16.155 15.3966C17.5909 13.6206 18.2903 11.3486 18.1037 9.05926C17.7595 4.83642 14.2736 1.6 10.1038 1.6H9.62949Z" fill="#B07F20"/>
<path d="M16.2678 9.86668C16.2678 13.4013 13.4024 16.2667 9.8678 16.2667C6.33316 16.2667 3.46777 13.4013 3.46777 9.86668C3.46777 6.33204 6.33316 3.46665 9.8678 3.46665C13.4024 3.46665 16.2678 6.33204 16.2678 9.86668Z" fill="#B07F20"/>
<path fill-rule="evenodd" clip-rule="evenodd" d="M9.20214 7.5452L6.5336 12.4145H13.0624L11.7061 9.9717L11.34 10.4297C11.336 10.4349 11.332 10.44 11.3277 10.445L10.5 11.4804C10.3644 11.65 10.1171 11.6775 9.94758 11.5418C9.77809 11.4061 9.75061 11.1586 9.8862 10.989L10.56 10.1462L9.20214 7.5452ZM11.0965 9.47512L9.72888 6.85542L9.72888 6.85541C9.51087 6.43786 8.9158 6.43185 8.68942 6.84492L8.68942 6.84492L5.68479 12.3275C5.68479 12.3275 5.68479 12.3275 5.68479 12.3275C5.46933 12.7207 5.75364 13.2011 6.20171 13.2011H13.7303C13.8696 13.2011 13.9985 13.1273 14.0691 13.0072C14.1397 12.8871 14.1415 12.7386 14.0739 12.6168L12.1088 9.07727C12.0452 8.96268 11.9287 8.88734 11.7981 8.87637C11.6676 8.86539 11.5401 8.92022 11.4583 9.02259L11.0965 9.47512ZM6.37413 12.7055L6.37401 12.7057L6.37401 12.7057C6.37405 12.7056 6.37409 12.7056 6.37413 12.7055Z" fill="white"/>
</svg>
