<svg width="20" height="24" viewBox="0 0 20 24" fill="none" xmlns="http://www.w3.org/2000/svg">
<path fill-rule="evenodd" clip-rule="evenodd" d="M1.03229 8.99429C1.40968 4.36373 5.2356 0.80001 9.82949 0.80001H10.3038C14.8977 0.80001 18.7237 4.36373 19.101 8.99429C19.3042 11.4874 18.5428 13.963 16.9771 15.8996L11.7134 22.4105C10.8623 23.4632 9.27106 23.4632 8.41997 22.4105L3.1562 15.8996C1.59053 13.963 0.829101 11.4874 1.03229 8.99429Z" fill="#F6F6F6"/>
<path fill-rule="evenodd" clip-rule="evenodd" d="M0.235129 8.9293C0.645744 3.891 4.81166 0 9.82968 0H10.304C15.3221 0 19.488 3.891 19.8986 8.9293C20.1184 11.6262 19.2949 14.3054 17.5994 16.4026L12.3357 22.9134C11.1644 24.3622 8.96933 24.3622 7.79805 22.9134L2.53428 16.4026C0.83879 14.3054 0.0153328 11.6262 0.235129 8.9293ZM9.82968 1.6C5.65994 1.6 2.174 4.83643 1.82984 9.05926C1.64326 11.3486 2.34267 13.6206 3.77852 15.3967L9.04229 21.9075C9.57317 22.5642 10.5606 22.5642 11.0914 21.9075L16.3552 15.3966C17.7911 13.6206 18.4905 11.3486 18.3039 9.05926C17.9597 4.83643 14.4738 1.6 10.304 1.6H9.82968Z" fill="#48A4E7"/>
<path d="M16.467 9.86668C16.467 13.4013 13.6017 16.2667 10.067 16.2667C6.53238 16.2667 3.66699 13.4013 3.66699 9.86668C3.66699 6.33204 6.53238 3.46665 10.067 3.46665C13.6017 3.46665 16.467 6.33204 16.467 9.86668Z" fill="#48A4E7"/>
<path d="M12.8519 13.0901H7.26109C7.16545 13.0901 7.08789 13.1653 7.08789 13.2581C7.08789 13.3509 7.16545 13.4261 7.26109 13.4261H12.8519C12.9476 13.4261 13.0251 13.3509 13.0251 13.2581C13.0251 13.1653 12.9476 13.0901 12.8519 13.0901Z" fill="white"/>
<path fill-rule="evenodd" clip-rule="evenodd" d="M7.26213 13.0776H12.853C12.9557 13.0776 13.0389 13.1584 13.0389 13.258C13.0389 13.3577 12.9557 13.4385 12.853 13.4385H7.26213C7.15944 13.4385 7.07617 13.3577 7.07617 13.258C7.07617 13.1584 7.15944 13.0776 7.26213 13.0776ZM7.26213 13.09H12.853C12.9486 13.09 13.0261 13.1653 13.0261 13.258C13.0261 13.3508 12.9486 13.4261 12.853 13.4261H7.26213C7.16649 13.4261 7.08893 13.3508 7.08893 13.258C7.08893 13.1653 7.16649 13.09 7.26213 13.09Z" fill="white"/>
<path d="M6.6738 13.0901H5.99644C5.9008 13.0901 5.82324 13.1653 5.82324 13.2581C5.82324 13.3509 5.90078 13.4261 5.99644 13.4261H6.6738C6.76944 13.4261 6.84699 13.3509 6.84699 13.2581C6.84699 13.1653 6.76946 13.0901 6.6738 13.0901Z" fill="white"/>
<path fill-rule="evenodd" clip-rule="evenodd" d="M5.99748 13.0776H6.67484C6.77755 13.0776 6.8608 13.1584 6.8608 13.258C6.8608 13.3577 6.77753 13.4385 6.67484 13.4385H5.99748C5.89478 13.4385 5.81152 13.3577 5.81152 13.258C5.81152 13.1584 5.89479 13.0776 5.99748 13.0776ZM5.99748 13.09H6.67484C6.7705 13.09 6.84804 13.1653 6.84804 13.258C6.84804 13.3508 6.77048 13.4261 6.67484 13.4261H5.99748C5.90182 13.4261 5.82429 13.3508 5.82429 13.258C5.82429 13.1653 5.90184 13.09 5.99748 13.09Z" fill="white"/>
<path d="M14.122 13.0901H13.4447C13.349 13.0901 13.2715 13.1654 13.2715 13.2582C13.2715 13.351 13.349 13.4262 13.4447 13.4262H14.122C14.2177 13.4262 14.2952 13.351 14.2952 13.2582C14.2952 13.1654 14.2177 13.0901 14.122 13.0901Z" fill="white"/>
<path fill-rule="evenodd" clip-rule="evenodd" d="M13.4447 13.0776H14.1221C14.2248 13.0776 14.3081 13.1584 14.3081 13.258C14.3081 13.3577 14.2248 13.4384 14.1221 13.4384H13.4447C13.3421 13.4384 13.2588 13.3577 13.2588 13.258C13.2588 13.1584 13.3421 13.0776 13.4447 13.0776ZM13.4447 13.09H14.1221C14.2178 13.09 14.2953 13.1652 14.2953 13.258C14.2953 13.3508 14.2177 13.4261 14.1221 13.4261H13.4447C13.3491 13.4261 13.2716 13.3508 13.2716 13.258C13.2716 13.1652 13.3491 13.09 13.4447 13.09Z" fill="white"/>
<path d="M12.1176 13.6782H8.93784C8.8422 13.6782 8.76465 13.7535 8.76465 13.8463C8.76465 13.939 8.8422 14.0143 8.93784 14.0143H12.1176C12.2133 14.0143 12.2908 13.939 12.2908 13.8463C12.2908 13.7535 12.2133 13.6782 12.1176 13.6782Z" fill="white"/>
<path fill-rule="evenodd" clip-rule="evenodd" d="M8.93889 13.6658H12.1186C12.2213 13.6658 12.3046 13.7466 12.3046 13.8462C12.3046 13.9458 12.2213 14.0266 12.1187 14.0266H8.93889C8.8362 14.0266 8.75293 13.9458 8.75293 13.8462C8.75293 13.7466 8.8362 13.6658 8.93889 13.6658ZM8.93889 13.6782H12.1186C12.2143 13.6782 12.2919 13.7534 12.2919 13.8462C12.2919 13.939 12.2143 14.0142 12.1187 14.0142H8.93889C8.84325 14.0142 8.76569 13.939 8.76569 13.8462C8.76569 13.7534 8.84325 13.6782 8.93889 13.6782Z" fill="white"/>
<path d="M8.35157 13.6783H8.01597C7.92033 13.6783 7.84277 13.7535 7.84277 13.8463C7.84277 13.9391 7.92033 14.0143 8.01597 14.0143H8.35157C8.44722 14.0143 8.52476 13.9391 8.52476 13.8463C8.52476 13.7535 8.44721 13.6783 8.35157 13.6783Z" fill="white"/>
<path fill-rule="evenodd" clip-rule="evenodd" d="M8.01701 13.6658H8.35261C8.4553 13.6658 8.53857 13.7466 8.53857 13.8462C8.53857 13.9458 8.45531 14.0266 8.35261 14.0266H8.01701C7.91432 14.0266 7.83105 13.9458 7.83105 13.8462C7.83105 13.7466 7.91432 13.6658 8.01701 13.6658ZM8.01701 13.6782H8.35261C8.44825 13.6782 8.5258 13.7534 8.5258 13.8462C8.5258 13.939 8.44827 14.0142 8.35261 14.0142H8.01701C7.92137 14.0142 7.84382 13.939 7.84382 13.8462C7.84382 13.7534 7.92137 13.6782 8.01701 13.6782Z" fill="white"/>
<path d="M11.2132 7.14693C11.1176 7.14693 11.04 7.22217 11.04 7.31496V9.0544C11.04 9.14719 11.1176 9.22243 11.2132 9.22243C11.3089 9.22243 11.3864 9.14719 11.3864 9.0544V7.31496C11.3864 7.22217 11.3089 7.14693 11.2132 7.14693Z" fill="white"/>
<path fill-rule="evenodd" clip-rule="evenodd" d="M11.0283 7.31491C11.0283 7.21529 11.1116 7.1345 11.2143 7.1345C11.317 7.1345 11.4002 7.21528 11.4002 7.31491V9.05435C11.4002 9.15398 11.317 9.23476 11.2143 9.23476C11.1116 9.23476 11.0283 9.15398 11.0283 9.05435V7.31491ZM11.0411 7.31491C11.0411 7.22212 11.1186 7.14688 11.2143 7.14688C11.3099 7.14688 11.3875 7.22212 11.3875 7.31491V9.05435C11.3875 9.14714 11.3099 9.22238 11.2143 9.22238C11.1186 9.22238 11.0411 9.14714 11.0411 9.05435V7.31491Z" fill="white"/>
<path d="M11.2132 9.45844C11.1176 9.45844 11.04 9.53367 11.04 9.62647V10.0078C11.04 10.1006 11.1176 10.1758 11.2132 10.1758C11.3089 10.1758 11.3864 10.1006 11.3864 10.0078V9.62647C11.3864 9.53368 11.3089 9.45844 11.2132 9.45844Z" fill="white"/>
<path fill-rule="evenodd" clip-rule="evenodd" d="M11.0283 9.62642C11.0283 9.52678 11.1116 9.44601 11.2143 9.44601C11.317 9.44601 11.4002 9.5268 11.4002 9.62642V10.0078C11.4002 10.1074 11.317 10.1882 11.2143 10.1882C11.1116 10.1882 11.0283 10.1074 11.0283 10.0078V9.62642ZM11.0411 9.62642C11.0411 9.53362 11.1186 9.45839 11.2143 9.45839C11.3099 9.45839 11.3875 9.53364 11.3875 9.62642V10.0078C11.3875 10.1005 11.3099 10.1758 11.2143 10.1758C11.1186 10.1758 11.0411 10.1005 11.0411 10.0078V9.62642Z" fill="white"/>
<path d="M10.0667 7.32476C9.97109 7.32476 9.89355 7.40001 9.89355 7.49279V8.70874C9.89355 8.80154 9.97109 8.87677 10.0667 8.87677C10.1624 8.87677 10.2399 8.80154 10.2399 8.70874V7.49279C10.2399 7.40001 10.1624 7.32476 10.0667 7.32476Z" fill="white"/>
<path fill-rule="evenodd" clip-rule="evenodd" d="M9.88184 7.49269C9.88184 7.39306 9.96509 7.31228 10.0678 7.31228C10.1705 7.31228 10.2537 7.39306 10.2537 7.49269V8.70864C10.2537 8.80828 10.1705 8.88904 10.0678 8.88904C9.96509 8.88904 9.88184 8.80828 9.88184 8.70864V7.49269ZM9.8946 7.49269C9.8946 7.3999 9.97214 7.32466 10.0678 7.32466C10.1634 7.32466 10.241 7.3999 10.241 7.49269V8.70864C10.241 8.80144 10.1634 8.87666 10.0678 8.87666C9.97214 8.87666 9.8946 8.80144 9.8946 8.70864V7.49269Z" fill="white"/>
<path d="M10.0667 6.50339C9.97109 6.50339 9.89355 6.57863 9.89355 6.67142V6.92183C9.89355 7.01463 9.97109 7.08986 10.0667 7.08986C10.1624 7.08986 10.2399 7.01462 10.2399 6.92183V6.67142C10.2399 6.57863 10.1624 6.50339 10.0667 6.50339Z" fill="white"/>
<path fill-rule="evenodd" clip-rule="evenodd" d="M9.88184 6.67131C9.88184 6.57169 9.96509 6.49091 10.0678 6.49091C10.1705 6.49091 10.2537 6.57169 10.2537 6.67131V6.92173C10.2537 7.02135 10.1705 7.10213 10.0678 7.10213C9.96509 7.10213 9.88184 7.02137 9.88184 6.92173V6.67131ZM9.8946 6.67131C9.8946 6.57853 9.97214 6.50329 10.0678 6.50329C10.1634 6.50329 10.241 6.57853 10.241 6.67131V6.92173C10.241 7.01451 10.1634 7.08975 10.0678 7.08975C9.97214 7.08975 9.8946 7.01453 9.8946 6.92173V6.67131Z" fill="white"/>
<path d="M10.0667 9.11218C9.97109 9.11218 9.89355 9.18742 9.89355 9.28021V9.66155C9.89355 9.75433 9.97109 9.82957 10.0667 9.82957C10.1624 9.82957 10.2399 9.75433 10.2399 9.66155V9.28021C10.2399 9.18742 10.1624 9.11218 10.0667 9.11218Z" fill="white"/>
<path fill-rule="evenodd" clip-rule="evenodd" d="M9.88184 9.2801C9.88184 9.18048 9.96509 9.09969 10.0678 9.09969C10.1705 9.09969 10.2537 9.18048 10.2537 9.2801V9.66144C10.2537 9.76106 10.1705 9.84185 10.0678 9.84185C9.96509 9.84185 9.88184 9.76106 9.88184 9.66144V9.2801ZM9.8946 9.2801C9.8946 9.18731 9.97214 9.11207 10.0678 9.11207C10.1634 9.11207 10.241 9.18731 10.241 9.2801V9.66144C10.241 9.75423 10.1634 9.82947 10.0678 9.82947C9.97214 9.82947 9.8946 9.75423 9.8946 9.66144V9.2801Z" fill="white"/>
<path d="M10.0667 10.0649C9.97109 10.0649 9.89355 10.1401 9.89355 10.2329V10.6143C9.89355 10.7071 9.97109 10.7823 10.0667 10.7823C10.1624 10.7823 10.2399 10.7071 10.2399 10.6143V10.2329C10.2399 10.1401 10.1624 10.0649 10.0667 10.0649Z" fill="white"/>
<path fill-rule="evenodd" clip-rule="evenodd" d="M9.88184 10.2328C9.88184 10.1332 9.96509 10.0524 10.0678 10.0524C10.1705 10.0524 10.2537 10.1332 10.2537 10.2328V10.6142C10.2537 10.7138 10.1705 10.7946 10.0678 10.7946C9.96509 10.7946 9.88184 10.7138 9.88184 10.6142V10.2328ZM9.8946 10.2328C9.8946 10.14 9.97214 10.0648 10.0678 10.0648C10.1634 10.0648 10.241 10.14 10.241 10.2328V10.6142C10.241 10.707 10.1634 10.7822 10.0678 10.7822C9.97214 10.7822 9.8946 10.707 9.8946 10.6142V10.2328Z" fill="white"/>
<path d="M8.9564 7.17635C8.86074 7.17635 8.7832 7.25159 8.7832 7.34437V8.86438C8.7832 8.95716 8.86074 9.03241 8.9564 9.03241C9.05205 9.03241 9.12959 8.95718 9.12959 8.86438V7.34437C9.12959 7.25159 9.05205 7.17635 8.9564 7.17635Z" fill="white"/>
<path fill-rule="evenodd" clip-rule="evenodd" d="M8.77148 7.34425C8.77148 7.24463 8.85474 7.16384 8.95744 7.16384C9.06015 7.16384 9.1434 7.24463 9.1434 7.34425V8.86426C9.1434 8.9639 9.06014 9.04467 8.95744 9.04467C8.85474 9.04467 8.77148 8.96388 8.77148 8.86426V7.34425ZM8.78425 7.34425C8.78425 7.25147 8.86179 7.17622 8.95744 7.17622C9.0531 7.17622 9.13064 7.25147 9.13064 7.34425V8.86426C9.13064 8.95706 9.0531 9.03229 8.95744 9.03229C8.86179 9.03229 8.78425 8.95704 8.78425 8.86426V7.34425Z" fill="white"/>
<path d="M8.9564 9.26732C8.86074 9.26732 8.7832 9.34256 8.7832 9.43535V9.81669C8.7832 9.90949 8.86074 9.98472 8.9564 9.98472C9.05205 9.98472 9.12959 9.90949 9.12959 9.81669V9.43535C9.12959 9.34256 9.05205 9.26732 8.9564 9.26732Z" fill="white"/>
<path fill-rule="evenodd" clip-rule="evenodd" d="M8.77148 9.43521C8.77148 9.33559 8.85474 9.25481 8.95744 9.25481C9.06015 9.25481 9.1434 9.33559 9.1434 9.43521V9.81655C9.1434 9.91619 9.06014 9.99696 8.95744 9.99696C8.85474 9.99696 8.77148 9.91619 8.77148 9.81655V9.43521ZM8.78425 9.43521C8.78425 9.34243 8.86179 9.26719 8.95744 9.26719C9.0531 9.26719 9.13064 9.34243 9.13064 9.43521V9.81655C9.13064 9.90936 9.0531 9.98458 8.95744 9.98458C8.86179 9.98458 8.78425 9.90936 8.78425 9.81655V9.43521Z" fill="white"/>
<path d="M8.9564 10.2391C8.86074 10.2391 8.7832 10.3143 8.7832 10.4071V10.7884C8.7832 10.8812 8.86074 10.9565 8.9564 10.9565C9.05205 10.9565 9.12959 10.8812 9.12959 10.7884V10.4071C9.12959 10.3143 9.05205 10.2391 8.9564 10.2391Z" fill="white"/>
<path fill-rule="evenodd" clip-rule="evenodd" d="M8.77148 10.407C8.77148 10.3073 8.85474 10.2266 8.95744 10.2266C9.06015 10.2266 9.1434 10.3073 9.1434 10.407V10.7883C9.1434 10.8879 9.06015 10.9687 8.95744 10.9687C8.85474 10.9687 8.77148 10.888 8.77148 10.7883V10.407ZM8.78425 10.407C8.78425 10.3142 8.86179 10.2389 8.95744 10.2389C9.0531 10.2389 9.13064 10.3142 9.13064 10.407V10.7883C9.13064 10.8811 9.0531 10.9563 8.95744 10.9563C8.86179 10.9563 8.78425 10.8811 8.78425 10.7883V10.407Z" fill="white"/>
<path d="M10.8097 10.8877C10.4828 10.8877 10.1735 11.0258 9.9386 11.2765C9.87425 11.3451 9.87947 11.4514 9.95025 11.5138C9.98343 11.5431 10.0251 11.5575 10.0667 11.5575C10.1138 11.5575 10.1607 11.539 10.1949 11.5025C10.3633 11.3228 10.5816 11.2238 10.8097 11.2238C10.9053 11.2238 10.9829 11.1486 10.9829 11.0558C10.9829 10.963 10.9053 10.8877 10.8097 10.8877Z" fill="white"/>
<path fill-rule="evenodd" clip-rule="evenodd" d="M9.95129 11.5137C9.88052 11.4513 9.87529 11.345 9.93964 11.2764C10.1745 11.0257 10.4839 10.8876 10.8107 10.8876C10.9063 10.8876 10.9839 10.9629 10.9839 11.0557C10.9839 11.1485 10.9063 11.2237 10.8107 11.2237C10.5827 11.2237 10.3644 11.3227 10.1959 11.5024C10.1618 11.5389 10.1148 11.5574 10.0677 11.5574C10.0262 11.5574 9.98448 11.543 9.95129 11.5137ZM10.2054 11.5107C10.1687 11.5499 10.1183 11.5698 10.0677 11.5698C10.0231 11.5698 9.97833 11.5543 9.94271 11.5229L9.94271 11.5229C9.86672 11.4558 9.86111 11.3417 9.9302 11.268C10.1673 11.015 10.48 10.8753 10.8107 10.8753C10.9134 10.8753 10.9967 10.9561 10.9967 11.0557C10.9967 11.1553 10.9134 11.2361 10.8107 11.2361C10.5867 11.2361 10.3717 11.3333 10.2054 11.5107Z" fill="white"/>
<path d="M9.90034 11.7922C9.71685 11.4292 9.36864 11.2037 8.99155 11.2037C8.89591 11.2037 8.81836 11.2789 8.81836 11.3717C8.81836 11.4645 8.89591 11.5397 8.99155 11.5397C9.23543 11.5397 9.4645 11.6932 9.58934 11.9402C9.61942 11.9997 9.68097 12.0342 9.74496 12.0342C9.77056 12.0342 9.79656 12.0287 9.82108 12.0171C9.90697 11.9762 9.94246 11.8755 9.90034 11.7922Z" fill="white"/>
<path fill-rule="evenodd" clip-rule="evenodd" d="M9.82676 12.028L9.82676 12.028C9.80046 12.0405 9.77253 12.0465 9.74503 12.0465C9.67635 12.0465 9.61026 12.0094 9.57795 11.9455C9.45482 11.7019 9.22972 11.552 8.99162 11.552C8.88893 11.552 8.80566 11.4712 8.80566 11.3716C8.80566 11.2719 8.88893 11.1912 8.99162 11.1912C9.37418 11.1912 9.72651 11.4199 9.91186 11.7866C9.95709 11.8761 9.91898 11.9842 9.82676 12.028ZM9.58941 11.94C9.46456 11.693 9.23549 11.5396 8.99162 11.5396C8.89598 11.5396 8.81843 11.4644 8.81843 11.3716C8.81843 11.2788 8.89598 11.2036 8.99162 11.2036C9.36871 11.2036 9.71692 11.4291 9.90041 11.7921C9.94253 11.8754 9.90704 11.9761 9.82114 12.0169C9.79663 12.0286 9.77062 12.0341 9.74503 12.0341C9.68103 12.0341 9.61949 11.9996 9.58941 11.94Z" fill="white"/>
<path d="M13.8898 9.07444H13.6696V7.53996C13.6696 7.31535 13.4813 7.13262 13.2497 7.13262H12.9818V6.12604C12.9818 5.90143 12.7935 5.7187 12.562 5.7187H7.5719C7.34037 5.7187 7.15201 5.90143 7.15201 6.12604V7.13259H6.88411C6.65258 7.13259 6.46424 7.31532 6.46424 7.53993V9.07441H6.24409C6.01256 9.07441 5.82422 9.25714 5.82422 9.48175V12.6414C5.82422 12.7342 5.90176 12.8095 5.99741 12.8095C6.09307 12.8095 6.17061 12.7342 6.17061 12.6414V9.48178C6.17061 9.44247 6.20356 9.4105 6.24409 9.4105H6.63743C6.73307 9.4105 6.81063 9.33526 6.81063 9.24247V7.53995C6.81063 7.50063 6.84358 7.46866 6.88411 7.46866H7.32522C7.42086 7.46866 7.49842 7.39342 7.49842 7.30063V6.12604C7.49842 6.08673 7.53137 6.05474 7.5719 6.05474H7.98805V11.532C7.88058 11.6345 7.7944 11.7555 7.73405 11.8886C7.36434 11.9541 7.08936 12.2653 7.08936 12.6415C7.08936 12.7342 7.16691 12.8095 7.26255 12.8095H12.8706C12.9662 12.8095 13.0437 12.7342 13.0437 12.6415C13.0437 12.2136 12.7098 11.86 12.2815 11.8131C12.2465 11.7176 12.2008 11.6261 12.1447 11.5395V6.05476H12.562C12.6025 6.05476 12.6354 6.08673 12.6354 6.12606V7.30063C12.6354 7.39342 12.713 7.46866 12.8086 7.46866H13.2497C13.2903 7.46866 13.3232 7.50063 13.3232 7.53995V9.24245C13.3232 9.33524 13.4008 9.41048 13.4964 9.41048H13.8897C13.9303 9.41048 13.9632 9.44245 13.9632 9.48178V12.6415C13.9632 12.7343 14.0408 12.8095 14.1364 12.8095C14.2321 12.8095 14.3096 12.7343 14.3096 12.6415V9.48178C14.3096 9.25717 14.1213 9.07444 13.8898 9.07444ZM12.1599 12.1446C12.1681 12.1442 12.1762 12.1439 12.1845 12.1439C12.4065 12.1439 12.5961 12.2815 12.6673 12.4734H7.47045C7.53543 12.3237 7.68512 12.218 7.86354 12.2122C7.93617 12.2098 7.99959 12.1637 8.02231 12.0967C8.07 11.956 8.15693 11.8304 8.27379 11.7335C8.31228 11.7016 8.33442 11.6549 8.33442 11.6058V6.05476H11.7983V11.5896C11.7983 11.6234 11.8088 11.6565 11.8284 11.6844C11.9006 11.7869 11.9529 11.8991 11.9839 12.018C12.0041 12.0954 12.0785 12.1481 12.1599 12.1446Z" fill="white"/>
<path fill-rule="evenodd" clip-rule="evenodd" d="M12.1616 12.1569L12.1615 12.1569C12.0742 12.1607 11.9943 12.1042 11.9726 12.0209C11.9419 11.9035 11.8902 11.7926 11.819 11.6913C11.7979 11.6613 11.7866 11.6259 11.7866 11.5896V6.06709H8.34823V11.6058C8.34823 11.6585 8.32445 11.7086 8.28312 11.7429C8.16803 11.8383 8.08243 11.962 8.03548 12.1006C8.01108 12.1725 7.94299 12.222 7.865 12.2245C7.6986 12.2299 7.55799 12.3248 7.4912 12.461H12.6498C12.5758 12.2825 12.3956 12.1562 12.1855 12.1562C12.1776 12.1562 12.1697 12.1565 12.1616 12.1569ZM12.6635 12.461C12.5889 12.2755 12.4028 12.1438 12.1855 12.1438C12.1773 12.1438 12.1691 12.1442 12.161 12.1445C12.0796 12.1481 12.0052 12.0954 11.985 12.0179C11.9539 11.8991 11.9016 11.7868 11.8295 11.6843C11.8098 11.6564 11.7994 11.6234 11.7994 11.5896V6.05471H8.33546V11.6058C8.33546 11.6549 8.31332 11.7016 8.27483 11.7335C8.15798 11.8304 8.07104 11.956 8.02335 12.0967C8.00063 12.1637 7.93721 12.2098 7.86458 12.2121C7.69112 12.2178 7.54482 12.3179 7.47711 12.461C7.47518 12.4651 7.4733 12.4692 7.4715 12.4734H12.6683C12.6668 12.4692 12.6652 12.4651 12.6635 12.461ZM13.6834 9.06201H13.8908C14.1294 9.06201 14.3234 9.25028 14.3234 9.48174V12.6414C14.3234 12.741 14.2402 12.8218 14.1375 12.8218C14.0348 12.8218 13.9515 12.741 13.9515 12.6414V9.48174C13.9515 9.44924 13.9243 9.42282 13.8908 9.42282H13.4974C13.3948 9.42282 13.3115 9.34203 13.3115 9.24241V7.5399C13.3115 7.50742 13.2842 7.481 13.2508 7.481H12.8097C12.707 7.481 12.6237 7.40021 12.6237 7.30059V6.12601C12.6237 6.09352 12.5965 6.06709 12.563 6.06709H12.1585V11.5359C12.2128 11.6202 12.2574 11.709 12.2919 11.8016C12.7227 11.8527 13.0575 12.2098 13.0575 12.6414C13.0575 12.741 12.9743 12.8218 12.8716 12.8218H7.26359C7.16091 12.8218 7.07764 12.741 7.07764 12.6414C7.07764 12.2614 7.35379 11.9466 7.72615 11.8776C7.78628 11.7469 7.87109 11.628 7.97633 11.5268V6.06708H7.57294C7.53946 6.06708 7.51222 6.09351 7.51222 6.126V7.30059C7.51222 7.40021 7.42895 7.481 7.32627 7.481H6.88515C6.85167 7.481 6.82443 7.50742 6.82443 7.5399V9.24242C6.82443 9.34205 6.74116 9.42283 6.63848 9.42283H6.24513C6.21165 9.42283 6.18441 9.44926 6.18441 9.48174V12.6414C6.18441 12.741 6.10116 12.8218 5.99846 12.8218C5.89575 12.8218 5.8125 12.741 5.8125 12.6414V9.4817C5.8125 9.25025 6.00656 9.06198 6.24513 9.06198H6.45252V7.53988C6.45252 7.30843 6.64658 7.12016 6.88515 7.12016H7.14029V6.126C7.14029 5.89454 7.33437 5.70627 7.57294 5.70627H12.563C12.8016 5.70627 12.9956 5.89454 12.9956 6.126V7.12019H13.2508C13.4894 7.12019 13.6834 7.30846 13.6834 7.53992V9.06201ZM7.98909 11.532V6.05469H7.57294C7.53241 6.05469 7.49946 6.08668 7.49946 6.126V7.30059C7.49946 7.39337 7.4219 7.46861 7.32627 7.46861H6.88515C6.84462 7.46861 6.81167 7.50058 6.81167 7.5399V9.24242C6.81167 9.33521 6.73411 9.41045 6.63848 9.41045H6.24513C6.2046 9.41045 6.17165 9.44242 6.17165 9.48174V12.6414C6.17165 12.7342 6.09411 12.8094 5.99846 12.8094C5.9028 12.8094 5.82526 12.7342 5.82526 12.6414V9.4817C5.82526 9.25709 6.01361 9.07436 6.24513 9.07436H6.46528V7.53988C6.46528 7.31527 6.65363 7.13254 6.88515 7.13254H7.15305V6.126C7.15305 5.90138 7.34141 5.71865 7.57294 5.71865H12.563C12.7945 5.71865 12.9829 5.90138 12.9829 6.126V7.13257H13.2508C13.4823 7.13257 13.6707 7.3153 13.6707 7.53992V9.07439H13.8908C14.1223 9.07439 14.3107 9.25712 14.3107 9.48174V12.6414C14.3107 12.7342 14.2331 12.8094 14.1375 12.8094C14.0418 12.8094 13.9643 12.7342 13.9643 12.6414V9.48174C13.9643 9.4424 13.9313 9.41044 13.8908 9.41044H13.4974C13.4018 9.41044 13.3242 9.33519 13.3242 9.24241V7.5399C13.3242 7.50058 13.2913 7.46861 13.2508 7.46861H12.8097C12.714 7.46861 12.6365 7.39337 12.6365 7.30059V6.12601C12.6365 6.08668 12.6035 6.05471 12.563 6.05471H12.1457V11.5395C12.2019 11.626 12.2476 11.7176 12.2825 11.8131C12.7108 11.8599 13.0448 12.2136 13.0448 12.6414C13.0448 12.7342 12.9672 12.8094 12.8716 12.8094H7.26359C7.16796 12.8094 7.0904 12.7342 7.0904 12.6414C7.0904 12.2652 7.36538 11.954 7.73509 11.8885C7.79544 11.7554 7.88162 11.6344 7.98909 11.532Z" fill="white"/>
</svg>
